<svg width="62" height="78" viewBox="0 0 62 78" fill="none" xmlns="http://www.w3.org/2000/svg">
<path d="M38.8291 47.3185C38.8291 42.7319 35.0972 39 30.5106 39C25.9241 39 22.1921 42.7319 22.1921 47.3185C22.1921 51.905 25.9241 55.637 30.5106 55.637C35.0972 55.637 38.8291 51.905 38.8291 47.3185Z" fill="#F5F5F5"/>
<path d="M7.97656 47.4602C7.97656 59.938 18.1183 70.0797 30.596 70.0797C43.0737 70.0797 53.2154 59.938 53.2154 47.4602C53.2154 34.9825 43.0737 24.8408 30.596 24.8408C26.8071 24.8408 23.2746 25.7809 20.1409 27.4047C21.9072 31.4215 25.924 34.2133 30.596 34.2133C37.8889 34.2133 43.7859 40.1388 43.7859 47.4317C43.7859 54.7247 37.8889 60.6217 30.596 60.6217C23.0752 60.6217 17.0357 54.3543 17.4061 46.7765L17.3206 46.748C17.3206 44.9248 17.3206 36.5779 17.3206 29.1425C11.6515 33.2733 7.97656 39.9394 7.97656 47.4602Z" fill="white"/>
<path d="M19.1439 19.0584V22.7904C19.1439 23.7305 19.2863 24.6136 19.4858 25.4967C22.8188 23.8159 26.6077 22.8473 30.5961 22.8473C44.1563 22.8473 55.2096 33.8722 55.2096 47.4609C55.2096 61.0212 44.1563 72.0745 30.5961 72.0745C17.0073 72.0745 5.98247 61.0212 5.98247 47.4609C5.98247 38.7721 10.512 31.1088 17.3207 26.7217C17.3207 22.0782 17.3207 18.1468 17.3207 16.9503C17.3207 7.57779 9.57195 0 0 0V47.4324C0 64.3258 13.7027 78 30.5961 78C47.4894 78 61.1636 64.3258 61.1636 47.4324C61.1636 25.7531 39.1994 10.9679 19.1439 19.0584Z" fill="#F5F5F5"/>
</svg>
