<svg width="24" height="30" viewBox="0 0 24 30" fill="none" xmlns="http://www.w3.org/2000/svg">
<path d="M18.8222 16.604C20.4531 15.7345 21.8722 14.2136 22.0831 12.6152C22.4583 9.76907 20.6351 7.62748 18.3072 6.64018C15.5268 5.46061 17.3821 6.3054 6.74694 3.50504C1.63521 2.15928 1.30801 0.904403 1.42271 0C0.04169 0.904403 -0.382501 5.83118 2.01137 7.3128C4.47216 8.83566 9.37499 9.15287 15.5364 10.9035C20.9534 12.4429 20.1518 15.2794 18.8222 16.604Z" fill="url(#paint0_linear_602_1769)"/>
<path d="M19.9178 17.4398C19.4473 17.1606 18.9344 16.9307 18.3871 16.7587C10.681 14.9916 10.0049 15.029 7.44792 14.4074C0.480148 12.713 1.31749 11.3017 1.13959 10.7383C-0.144964 12.1081 -0.166788 16.3928 2.2147 17.678C5.10289 19.2366 10.1849 19.7457 16.6251 21.3497C18.7198 21.8715 19.9471 22.4939 20.8636 23.2312C21.881 24.0496 22.1601 25.2461 21.3804 26.2496C20.6981 27.1277 18.8749 26.9843 16.8537 26.7023C13.2691 26.2025 8.72396 25.1615 7.44779 24.8077C1.71361 23.2182 1.31735 21.702 1.13945 21.1388C-0.145098 22.5087 -0.166922 26.7929 2.21457 28.0784C4.10268 29.0974 5.89485 29.6831 9.77938 29.9169C12.6246 30.0879 17.7927 30.2482 20.3241 27.6182C20.5705 27.3626 22.5392 25.8707 22.9464 23.3008C23.3253 20.9122 22.014 18.6838 19.9178 17.4398Z" fill="url(#paint1_linear_602_1769)"/>
<path d="M13.8534 15.7492C13.8528 15.7493 13.8524 15.7494 13.8516 15.7496C16.1593 16.2483 18.3882 16.7594 18.3882 16.7594C18.4261 16.7713 18.4639 16.7844 18.5017 16.7969C18.6115 16.7351 18.7199 16.6715 18.8248 16.6041C20.1542 15.2792 20.9551 12.4432 15.5388 10.904C15.1649 10.7978 14.7957 10.6971 14.4313 10.6006C15.9496 11.2152 18.0936 14.5454 13.8534 15.7492Z" fill="url(#paint2_linear_602_1769)"/>
<path d="M15.2753 26.1499C15.1723 26.2327 15.0655 26.3088 14.9552 26.3799C15.6025 26.5063 16.2428 26.6167 16.855 26.7021C18.876 26.9841 20.6993 27.1274 21.3816 26.2495C22.1614 25.2459 21.8824 24.0496 20.8648 23.231C19.1807 21.8765 16.9991 21.4186 14.7812 20.9082C16.4023 21.6455 17.7628 24.1442 15.2753 26.1499Z" fill="url(#paint3_linear_602_1769)"/>
<defs>
<linearGradient id="paint0_linear_602_1769" x1="28.9475" y1="10.2399" x2="-3.29377" y2="6.92091" gradientUnits="userSpaceOnUse">
<stop offset="0.0667" stop-color="#4CE5AE"/>
<stop offset="0.6848" stop-color="#1CAABC"/>
<stop offset="0.9636" stop-color="#076266"/>
</linearGradient>
<linearGradient id="paint1_linear_602_1769" x1="0.273598" y1="20.369" x2="23.0116" y2="20.369" gradientUnits="userSpaceOnUse">
<stop offset="0.0364" stop-color="#076266"/>
<stop offset="0.3152" stop-color="#1CAABC"/>
<stop offset="0.9333" stop-color="#4CE5AE"/>
</linearGradient>
<linearGradient id="paint2_linear_602_1769" x1="17.1644" y1="12.9444" x2="13.2203" y2="17.9343" gradientUnits="userSpaceOnUse">
<stop offset="0.0364" stop-color="#076266"/>
<stop offset="0.3152" stop-color="#1CAABC"/>
<stop offset="0.9333" stop-color="#4CE5AE"/>
</linearGradient>
<linearGradient id="paint3_linear_602_1769" x1="18.3275" y1="23.0206" x2="15.9577" y2="31.0484" gradientUnits="userSpaceOnUse">
<stop offset="0.0364" stop-color="#076266"/>
<stop offset="0.3152" stop-color="#1CAABC"/>
<stop offset="0.9333" stop-color="#4CE5AE"/>
</linearGradient>
</defs>
</svg>
