<svg width="21" height="36" viewBox="0 0 21 36" fill="none" xmlns="http://www.w3.org/2000/svg">
<path d="M0.03125 5.44238H4.55746V25.6989H0.03125V5.44238Z" fill="#19918F"/>
<path d="M19.8448 24.7188L19.8454 24.6718C19.8454 24.6718 19.8439 24.4487 19.8448 24.7188C19.8448 24.7188 19.9864 19.157 15.9404 16.6201C12.9606 14.7519 11.6278 13.7742 11.1309 13.0225L10.8813 12.6787L10.6274 13.024C10.1296 13.7755 7.59096 14.7526 4.61238 16.6201V24.2309H2.39862C2.13109 24.2309 1.91406 24.4493 1.91406 24.7188V25.5545V26.0424H19.8448V25.5545V24.7188Z" fill="#19918F"/>
<path d="M1.50458e-06 4.52621L0 2.11221L3.00915e-06 0C3.00915e-06 0 1.28028 1.57978 3.01866 2.11221C4.75705 2.64485 4.51468 4.52621 4.51468 4.52621H1.50458e-06Z" fill="#D8A30E"/>
<circle cx="10.1084" cy="25.0137" r="10.1084" fill="#19918F"/>
<path d="M12.7401 24.9287C12.7401 23.7145 11.7522 22.7266 10.538 22.7266C9.32386 22.7266 8.33594 23.7145 8.33594 24.9287C8.33594 26.1428 9.32386 27.1307 10.538 27.1307C11.7522 27.1307 12.7401 26.1428 12.7401 24.9287Z" fill="#FFB746"/>
<path d="M4.62891 24.9284C4.62891 28.1891 7.27912 30.8393 10.5398 30.8393C13.8004 30.8393 16.4506 28.1891 16.4506 24.9284C16.4506 21.6678 13.8004 19.0176 10.5398 19.0176C9.54967 19.0176 8.62656 19.2632 7.80767 19.6876C8.26923 20.7372 9.31889 21.4668 10.5398 21.4668C12.4455 21.4668 13.9865 23.0152 13.9865 24.921C13.9865 26.8268 12.4455 28.3678 10.5398 28.3678C8.57445 28.3678 6.99623 26.73 7.09301 24.7498L7.07068 24.7423C7.07068 24.2659 7.07068 22.0847 7.07068 20.1417C5.58924 21.2211 4.62891 22.9631 4.62891 24.9284Z" fill="#FAFAFA"/>
</svg>
