<svg width="402" height="117" viewBox="0 0 402 117" fill="none" xmlns="http://www.w3.org/2000/svg">
<path d="M29.7611 88.6142C30.1866 88.5558 30.6166 88.6741 31.0512 88.9691C31.4858 89.2641 31.7562 89.7984 31.8625 90.572C31.9475 91.1908 31.5843 91.9895 30.7728 92.9679C29.956 93.9077 28.8659 94.8653 27.5023 95.8408C26.1774 96.8109 24.7178 97.6616 23.1236 98.3929C21.5348 99.1628 20.0054 99.6487 18.5356 99.8506C16.4469 100.137 14.3998 99.8669 12.3945 99.0388C10.4278 98.2054 8.72347 96.8434 7.28153 94.9527C5.83428 93.0234 4.90614 90.5696 4.4971 87.5912C4.13588 84.961 4.25815 82.2643 4.86392 79.5013C5.46969 76.7383 6.39818 74.0294 7.64939 71.3748C8.93928 68.7149 10.4078 66.2077 12.0549 63.8534C13.7407 61.4938 15.4638 59.4049 17.2239 57.5868C18.9841 55.7687 20.6567 54.3173 22.2418 53.2326C23.8602 52.1039 25.2303 51.4626 26.352 51.3085C27.1256 51.2023 27.7843 51.4074 28.3281 51.9238C28.9053 52.3963 29.2391 52.9613 29.3294 53.6188C29.3825 54.0056 29.3196 54.4084 29.1407 54.8271C29.0004 55.2404 28.6948 55.5977 28.2238 55.8988C25.8796 57.4818 23.5445 59.4183 21.2186 61.7082C18.8926 63.9981 16.7973 66.5322 14.9325 69.3105C13.0624 72.0502 11.647 74.9441 10.6863 77.9923C9.72031 81.0019 9.45245 84.0732 9.88273 87.2062C10.2546 89.9138 11.177 91.8956 12.65 93.1514C14.1177 94.3686 15.9539 94.8258 18.1586 94.523C19.319 94.3636 20.4889 93.9862 21.6682 93.3907C22.8862 92.79 24.0189 92.1418 25.0662 91.4462C26.1469 90.7067 27.0835 90.0657 27.8761 89.5234C28.7073 88.9757 29.3356 88.6727 29.7611 88.6142ZM52.5391 94.826C50.2569 95.1394 48.3388 94.5161 46.7846 92.9562C45.2305 91.3962 44.2622 89.2237 43.8797 86.4388C43.7416 85.4331 43.7309 84.3508 43.8476 83.1919C43.9977 81.989 44.241 80.8915 44.5777 79.8995C44.2697 79.6659 44.0065 79.3277 43.7881 78.8848C43.5643 78.4032 43.4019 77.7949 43.301 77.06C42.9876 74.7779 43.0875 72.636 43.6008 70.6345C44.1142 68.6329 44.9134 66.8483 45.9986 65.2805C47.0785 63.674 48.3389 62.3778 49.7799 61.3917C51.2595 60.4003 52.8116 59.793 54.4361 59.5699C57.105 59.2034 59.4039 59.8729 61.3328 61.5785C63.2563 63.2454 64.4863 66.0322 65.0228 69.9388C65.3044 71.9889 65.2818 74.1201 64.9551 76.3324C64.6671 78.5395 64.1363 80.7011 63.3629 82.8172C62.6281 84.928 61.6901 86.8499 60.5488 88.5831C59.4462 90.3109 58.2043 91.7425 56.8233 92.878C55.4757 93.9695 54.0476 94.6188 52.5391 94.826ZM48.1361 77.4009C48.4107 77.6785 48.5825 78.0687 48.6515 78.5715C48.7312 79.1517 48.6949 79.7478 48.5425 80.3599C48.4287 80.9667 48.3249 81.7888 48.2309 82.8264C48.137 83.8639 48.2175 85.311 48.4725 87.1676C48.7274 89.0243 49.5899 89.8517 51.0597 89.6498C52.6842 89.4267 54.1051 88.5813 55.3223 87.1136C56.5341 85.6073 57.5408 83.7547 58.3423 81.5559C59.1438 79.3572 59.6753 77.0576 59.9368 74.6571C60.2316 72.2126 60.2356 69.946 59.9487 67.8573C59.7628 66.5035 59.3812 65.5904 58.804 65.1179C58.2215 64.6068 57.2727 64.4415 55.9576 64.6221C54.6038 64.8081 53.2557 65.4661 51.9134 66.5963C50.6044 67.6825 49.5727 69.0656 48.8181 70.7456C48.0636 72.4256 47.8192 74.2326 48.0848 76.1666C48.1432 76.592 48.1603 77.0035 48.1361 77.4009ZM119.816 83.2219C119.862 83.8461 119.68 84.3835 119.269 84.834C118.858 85.2845 118.343 85.5523 117.724 85.6373C117.028 85.7329 116.416 85.5805 115.888 85.1801C115.36 84.7797 115.03 84.096 114.897 83.129C114.552 80.6148 114.293 77.8719 114.121 74.9004C113.944 71.8902 113.831 68.9107 113.781 65.9619C113.725 62.9744 113.701 60.219 113.709 57.6957C112.683 59.6889 111.566 61.8915 110.361 64.3035C109.194 66.7101 107.985 69.1026 106.736 71.4812C105.486 73.8598 104.251 76.0589 103.031 78.0788C101.805 80.0599 100.67 81.6937 99.625 82.98C98.5746 84.2278 97.6627 84.9047 96.8891 85.011C95.4579 85.2075 94.1431 84.8167 92.9447 83.8384C91.741 82.8214 91.0196 81.4426 90.7806 79.702C90.6849 79.0058 90.6322 78.0475 90.6222 76.8272C90.6069 75.5682 90.603 74.2485 90.6105 72.8681C90.618 71.4878 90.6194 70.2068 90.6148 69.0251C90.6048 67.8048 90.56 66.9046 90.4803 66.3244C90.4059 65.7828 90.2842 65.3267 90.115 64.9558C89.9792 64.5409 89.7566 64.3548 89.4472 64.3973C88.983 64.461 88.4165 65.0708 87.7476 66.2267C87.0735 67.344 86.3425 68.7646 85.5546 70.4886C84.8054 72.2073 84.0308 74.0279 83.2308 75.9506C82.4695 77.868 81.7529 79.6808 81.0811 81.3888C80.4039 83.0582 79.817 84.3802 79.3203 85.3548C78.9343 86.2748 78.5551 86.9574 78.1828 87.4027C77.8104 87.8479 77.3148 88.113 76.6959 88.198C75.961 88.2989 75.231 88.0051 74.5059 87.3165C73.8194 86.6226 73.3992 85.7148 73.2451 84.5931C73.1548 83.9355 73.1301 82.8946 73.1709 81.4702C73.2065 80.0072 73.2814 78.4008 73.3958 76.6511C73.5489 74.896 73.6879 73.1824 73.8129 71.51C73.9713 69.7936 74.1062 68.3367 74.2176 67.1391C74.3464 65.7815 74.611 64.8387 75.0114 64.3108C75.4119 63.7829 75.8828 63.4818 76.4243 63.4074C77.1593 63.3065 77.7766 63.4975 78.2765 63.9806C78.8097 64.4197 79.1507 65.1808 79.2994 66.2638C79.326 66.4572 79.2817 66.9953 79.1664 67.8782C79.0459 68.7223 78.8939 69.7678 78.7105 71.0147C78.5604 72.2176 78.3796 73.4838 78.1681 74.8134C77.9953 76.1376 77.8672 77.3572 77.7839 78.4721C78.4383 76.9241 79.1155 75.2547 79.8153 73.464C80.5539 71.668 81.2952 69.8913 82.039 68.1339C82.7776 66.3379 83.5374 64.6966 84.3185 63.21C85.0943 61.6847 85.8905 60.4522 86.7073 59.5124C87.5241 58.5726 88.3579 58.0443 89.2089 57.9274C90.2145 57.7893 91.1854 57.9713 92.1213 58.4733C93.0959 58.97 93.9257 59.7033 94.6107 60.6733C95.2956 61.6433 95.7257 62.7665 95.901 64.0429C96.0232 64.9326 96.0411 66.2109 95.9548 67.878C95.8632 69.5063 95.7708 71.2727 95.6776 73.1772C95.6232 75.0763 95.6715 76.8628 95.8226 78.5367C95.8757 78.9235 96.0183 79.1009 96.2504 79.0691C96.4438 79.0425 96.6572 78.8752 96.8908 78.5673C97.8425 77.1755 98.8758 75.5163 99.9905 73.5898C101.1 71.6246 102.215 69.5601 103.337 67.3962C104.497 65.2269 105.643 63.099 106.776 61.0125C107.903 58.8873 108.959 56.9687 109.946 55.2569C110.966 53.501 111.876 52.0952 112.677 51.0393C113.517 49.9782 114.207 49.4105 114.749 49.3361C115.909 49.1767 116.844 49.3833 117.553 49.9559C118.262 50.5285 118.723 51.5884 118.935 53.1355C119.105 54.3733 119.229 55.9918 119.307 57.991C119.423 59.9849 119.505 62.1609 119.553 64.5189C119.64 66.8715 119.69 69.2489 119.705 71.6508C119.753 74.0088 119.779 76.2121 119.785 78.2606C119.785 80.2704 119.795 81.9242 119.816 83.2219ZM151.472 55.1696C151.642 56.4074 151.423 57.6789 150.814 58.9842C150.199 60.2509 149.329 61.5134 148.201 62.7717C147.068 63.9914 145.791 65.1716 144.372 66.3124C142.952 67.4532 141.516 68.478 140.065 69.3867C138.613 70.2954 137.278 71.0502 136.06 71.6509C135.958 73.2019 135.987 74.5576 136.146 75.718C136.247 76.453 136.493 76.9512 136.883 77.2129C137.274 77.4745 137.837 77.5548 138.572 77.4539C140.196 77.2308 141.878 76.7043 143.616 75.8744C145.354 75.0446 147.107 74.0353 148.875 72.8467C150.643 71.6581 152.325 70.4221 153.923 69.1387C155.52 67.8553 156.97 66.6512 158.274 65.5263C159.616 64.3961 160.731 63.4745 161.618 62.7615C162.506 62.0485 163.104 61.6708 163.413 61.6283C163.878 61.5645 164.247 61.6715 164.522 61.949C164.83 62.1826 165.01 62.4928 165.063 62.8796C165.106 63.189 164.705 63.855 163.86 64.8774C163.054 65.8945 161.94 67.1115 160.519 68.5284C159.092 69.9066 157.478 71.35 155.675 72.8587C153.872 74.3674 151.982 75.8093 150.003 77.1845C148.063 78.5544 146.152 79.7036 144.269 80.6321C142.426 81.5552 140.73 82.1231 139.183 82.3355C137.172 82.6118 135.502 82.0727 134.173 80.7182C132.844 79.3637 131.962 77.1006 131.526 73.9289C131.234 71.8015 131.21 69.6176 131.454 67.3771C131.737 65.1314 132.226 62.9558 132.922 60.8503C133.651 58.7008 134.509 56.7701 135.496 55.0583C136.516 53.3024 137.642 51.8867 138.873 50.8111C140.1 49.6969 141.351 49.0521 142.627 48.8768C145.064 48.5422 147.072 48.9561 148.65 50.1187C150.229 51.2812 151.169 52.9649 151.472 55.1696ZM136.665 67.0161C137.763 66.1165 138.895 65.1729 140.06 64.1853C141.225 63.1977 142.29 62.2041 143.256 61.2044C144.223 60.2047 144.971 59.1956 145.501 58.1769C146.064 57.1143 146.277 56.0802 146.139 55.0745C145.942 53.6433 145.07 53.034 143.523 53.2465C142.556 53.3793 141.616 54.1389 140.703 55.5254C139.823 56.8679 139.033 58.5726 138.332 60.6394C137.63 62.7062 137.075 64.8317 136.665 67.0161ZM161.478 95.2345C159.582 95.4948 157.931 95.091 156.523 94.0233C155.115 92.9555 154.292 91.5513 154.053 89.8107C153.867 88.4569 154.385 87.2036 155.606 86.0507C156.832 84.9364 158.544 83.7751 160.743 82.5668C162.908 81.4024 165.29 80.0901 167.887 78.6299C168.193 76.2628 168.434 73.4315 168.612 70.1361C168.785 66.802 168.936 62.8797 169.065 58.3693C169.028 56.0887 169.04 54.3136 169.102 53.0439C169.159 51.7356 169.266 50.7948 169.424 50.2214C169.582 49.648 169.788 49.2847 170.043 49.1315C170.336 48.9729 170.657 48.8698 171.005 48.822C171.353 48.7741 171.822 48.8871 172.412 49.1609C173.04 49.4293 173.628 49.8411 174.177 50.3962C174.726 50.9513 175.054 51.6157 175.16 52.3893C175.229 52.8921 175.234 53.6403 175.173 54.6339C175.151 55.6221 175.007 56.7257 174.741 57.9445C174.514 59.158 174.104 60.3374 173.513 61.4827C173.354 64.342 173.201 66.964 173.056 69.3485C172.91 71.733 172.738 73.9242 172.54 75.9219C174.717 74.5588 176.843 73.1044 178.916 71.5585C180.99 70.0126 182.87 68.3553 184.559 66.5865C186.241 64.779 187.61 62.8373 188.665 60.7614C188.977 60.1667 189.327 59.8429 189.714 59.7897C189.907 59.7632 190.117 59.8527 190.342 60.0582C190.606 60.2584 190.775 60.6292 190.849 61.1708C191.051 62.6406 190.656 64.2121 189.664 65.8853C188.667 67.5198 187.244 69.2127 185.396 70.9641C183.543 72.6768 181.454 74.4021 179.132 76.1398C176.803 77.8389 174.39 79.4906 171.891 81.0949C171.347 84.5981 170.637 87.3164 169.759 89.2498C168.926 91.2165 167.82 92.6295 166.44 93.4889C165.105 94.3817 163.45 94.9636 161.478 95.2345ZM170.975 42.1462C170.24 42.2471 169.59 42.1 169.023 41.7049C168.456 41.3098 168.099 40.5708 167.95 39.4877C167.775 38.2113 168.085 37.0258 168.88 35.9314C169.709 34.7929 170.684 34.1466 171.806 33.9926C172.889 33.8438 173.824 34.0504 174.611 34.6124C175.436 35.169 175.92 35.9695 176.064 37.0138C176.186 37.9035 176.019 38.6949 175.562 39.3882C175.1 40.0427 174.444 40.4284 173.593 40.5453C173.399 40.5719 173.242 40.5738 173.121 40.551C172.654 41.1669 172.276 41.5735 171.988 41.7707C171.7 41.9679 171.362 42.0931 170.975 42.1462ZM167.03 84.0088C165.385 84.9441 163.768 85.7967 162.179 86.5666C160.595 87.3753 159.211 88.058 158.027 88.6147C158.469 89.5392 159.004 90.1357 159.632 90.4041C160.227 90.7166 160.969 90.8117 161.859 90.6895C163.058 90.5248 164.088 89.9893 164.948 89.0829C165.77 88.1818 166.464 86.4904 167.03 84.0088ZM196.172 75.1001C193.89 75.4135 191.972 74.7902 190.418 73.2302C188.863 71.6702 187.895 69.4978 187.513 66.7128C187.374 65.7071 187.364 64.6249 187.481 63.466C187.631 62.2631 187.874 61.1656 188.211 60.1735C187.903 59.9399 187.639 59.6017 187.421 59.1588C187.197 58.6772 187.035 58.069 186.934 57.334C186.621 55.0519 186.72 52.9101 187.234 50.9085C187.747 48.907 188.546 47.1223 189.632 45.5545C190.711 43.9481 191.972 42.6518 193.413 41.6657C194.892 40.6743 196.444 40.0671 198.069 39.844C200.738 39.4774 203.037 40.147 204.966 41.8525C206.889 43.5194 208.119 46.3062 208.656 50.2129C208.937 52.2629 208.915 54.3941 208.588 56.6065C208.3 58.8136 207.769 60.9751 206.996 63.0912C206.261 65.202 205.323 67.124 204.182 68.8571C203.079 70.5849 201.837 72.0166 200.456 73.1521C199.109 74.2435 197.68 74.8929 196.172 75.1001ZM191.769 57.6749C192.044 57.9525 192.215 58.3427 192.284 58.8456C192.364 59.4258 192.328 60.0219 192.175 60.634C192.062 61.2407 191.958 62.0629 191.864 63.1004C191.77 64.138 191.85 65.5851 192.105 67.4417C192.36 69.2983 193.223 70.1257 194.693 69.9238C196.317 69.7007 197.738 68.8553 198.955 67.3877C200.167 65.8813 201.174 64.0288 201.975 61.83C202.777 59.6312 203.308 57.3316 203.57 54.9311C203.865 52.4867 203.869 50.2201 203.582 48.1314C203.396 46.7776 203.014 45.8644 202.437 45.392C201.854 44.8808 200.906 44.7156 199.591 44.8962C198.237 45.0821 196.889 45.7402 195.546 46.8703C194.237 47.9565 193.206 49.3396 192.451 51.0196C191.697 52.6996 191.452 54.5066 191.718 56.4406C191.776 56.8661 191.793 57.2775 191.769 57.6749ZM220.584 71.4519C219.849 71.5528 219.154 71.3723 218.5 70.9105C217.84 70.41 217.427 69.5602 217.263 68.3611C217.146 67.5102 217.1 66.3145 217.125 64.7741C217.144 63.195 217.223 61.47 217.36 59.5989C217.497 57.7278 217.656 55.8734 217.837 54.0357C218.052 52.154 218.293 50.4657 218.56 48.9708C218.828 47.4759 219.088 46.3564 219.341 45.6124C219.576 45.0284 219.818 44.6404 220.067 44.4485C220.356 44.2513 220.635 44.1341 220.906 44.0969C221.447 44.0225 221.935 44.1329 222.37 44.4279C222.843 44.7175 223.149 45.3652 223.287 46.3709C223.367 46.9511 223.384 47.934 223.337 49.3197C223.325 50.6614 223.266 52.2458 223.163 54.0728C223.092 55.8559 222.991 57.7023 222.859 59.6121C222.761 61.4779 222.652 63.2663 222.532 64.9773C222.412 66.6884 222.333 68.118 222.294 69.2663C222.224 69.9064 222.019 70.4271 221.68 70.8283C221.375 71.1856 221.009 71.3934 220.584 71.4519ZM221.863 38.586C220.974 38.7082 220.086 38.5543 219.199 38.1244C218.351 37.6891 217.845 36.8719 217.68 35.6728C217.542 34.6672 217.662 33.823 218.042 33.1404C218.459 32.4525 218.979 31.928 219.599 31.5669C220.253 31.1618 220.831 30.9248 221.334 30.8557C221.837 30.7867 222.413 30.8257 223.064 30.9728C223.748 31.0759 224.362 31.3856 224.906 31.9021C225.445 32.3798 225.788 33.1603 225.937 34.2433C226.038 34.9782 225.877 35.6703 225.454 36.3195C225.025 36.9301 224.465 37.4406 223.772 37.851C223.119 38.256 222.482 38.501 221.863 38.586ZM239.127 67.2501C238.005 67.4041 236.911 66.904 235.847 65.7498C234.782 64.5955 234.111 63.0127 233.835 61.0014C233.532 58.7966 233.498 56.3973 233.733 53.8034C234.007 51.2043 234.41 48.5478 234.944 45.8341C235.472 43.0817 235.995 40.4286 236.511 37.8749C236.635 37.3455 236.856 36.9409 237.172 36.661C237.521 36.3371 238.083 36.122 238.857 36.0158C240.249 35.8246 241.038 36.4058 241.224 37.7596C241.267 38.0691 241.208 38.7866 241.047 39.9121C240.886 41.0376 240.663 42.4279 240.378 44.0828C240.132 45.7324 239.885 47.5201 239.637 49.4458C239.384 51.3328 239.191 53.2311 239.06 55.1409C238.928 57.0507 238.893 58.8091 238.956 60.4162C239.485 59.6737 240.043 58.5724 240.631 57.1123C241.257 55.647 241.918 53.9996 242.612 52.1702C243.301 50.3021 244.029 48.4287 244.796 46.55C245.557 44.6326 246.34 42.87 247.144 41.262C247.981 39.6101 248.822 38.2729 249.667 37.2504C250.545 36.184 251.41 35.5923 252.26 35.4755C253.498 35.3055 254.596 35.5489 255.553 36.2056C256.543 36.8183 257.401 38.0405 258.125 39.8721C258.883 41.6596 259.496 44.2553 259.963 47.6592C260.213 49.4771 260.621 51.1551 261.187 52.6932C261.791 54.2259 262.566 55.42 263.511 56.2755C264.49 57.0869 265.636 57.4023 266.952 57.2217C268.924 56.9508 270.636 56.361 272.088 55.4523C273.534 54.5049 274.757 53.5093 275.757 52.4656C276.79 51.3779 277.645 50.4329 278.323 49.6304C278.996 48.7892 279.545 48.3394 279.97 48.281C280.86 48.1588 281.368 48.5619 281.496 49.4902C281.549 49.877 281.344 50.5357 280.881 51.4664C280.451 52.353 279.805 53.3876 278.942 54.57C278.113 55.7085 277.127 56.8489 275.984 57.9912C274.873 59.0895 273.645 60.0464 272.299 60.8618C270.991 61.6719 269.622 62.1752 268.191 62.3718C265.522 62.7383 263.265 62.5163 261.42 61.7057C259.613 60.8897 258.139 59.3385 256.997 57.0519C255.894 54.76 255.066 51.6027 254.514 47.58C254.211 45.3752 253.855 43.7886 253.446 42.8201C253.071 41.8076 252.531 41.1725 251.825 40.9146C251.473 41.7907 251.032 43.0334 250.505 44.6428C249.972 46.2136 249.346 47.9744 248.629 49.9251C247.95 51.8706 247.216 53.8433 246.427 55.8434C245.671 57.7995 244.877 59.6228 244.045 61.3134C243.213 63.004 242.38 64.3993 241.546 65.4991C240.707 66.5602 239.9 67.1439 239.127 67.2501ZM282.981 61.2273C281.86 61.3813 280.766 60.8812 279.701 59.727C278.636 58.5727 277.966 56.9899 277.69 54.9785C277.387 52.7738 277.353 50.3745 277.588 47.7806C277.861 45.1814 278.265 42.525 278.799 39.8112C279.327 37.0588 279.849 34.4058 280.366 31.8521C280.49 31.3227 280.71 30.918 281.027 30.6381C281.376 30.3143 281.938 30.0992 282.711 29.993C284.104 29.8017 284.893 30.383 285.079 31.7368C285.122 32.0462 285.062 32.7637 284.902 33.8893C284.741 35.0148 284.518 36.405 284.233 38.0599C283.987 39.7096 283.74 41.4972 283.492 43.4229C283.239 45.3099 283.046 47.2083 282.914 49.1181C282.783 51.0278 282.748 52.7863 282.811 54.3934C283.34 53.6508 283.898 52.5495 284.486 51.0895C285.112 49.6241 285.772 47.9768 286.467 46.1474C287.156 44.2793 287.884 42.4059 288.651 40.5272C289.412 38.6098 290.195 36.8471 290.999 35.2392C291.836 33.5872 292.677 32.25 293.522 31.2276C294.4 30.1612 295.264 29.5695 296.115 29.4526C297.353 29.2827 298.451 29.526 299.408 30.1828C300.398 30.7955 301.256 32.0176 301.98 33.8492C302.738 35.6368 303.351 38.2325 303.818 41.6363C304.068 43.4543 304.476 45.1323 305.042 46.6703C305.646 48.2031 306.421 49.3972 307.366 50.2526C308.345 51.0641 309.491 51.3795 310.806 51.1989C312.779 50.928 314.491 50.3382 315.943 49.4294C317.389 48.482 318.612 47.4865 319.611 46.4428C320.644 45.3551 321.5 44.41 322.178 43.6076C322.85 42.7664 323.4 42.3166 323.825 42.2582C324.715 42.136 325.223 42.5391 325.351 43.4674C325.404 43.8542 325.199 44.5129 324.735 45.4435C324.305 46.3302 323.659 47.3647 322.797 48.5472C321.968 49.6857 320.982 50.8261 319.838 51.9684C318.728 53.0667 317.5 54.0235 316.154 54.839C314.846 55.6491 313.477 56.1524 312.046 56.349C309.377 56.7155 307.12 56.4935 305.274 55.6828C303.468 54.8669 301.994 53.3156 300.852 51.029C299.749 48.7371 298.921 45.5798 298.369 41.5571C298.066 39.3524 297.71 37.7657 297.301 36.7973C296.926 35.7848 296.385 35.1496 295.68 34.8918C295.327 35.7678 294.887 37.0106 294.359 38.62C293.826 40.1908 293.201 41.9515 292.484 43.9023C291.805 45.8477 291.071 47.8205 290.282 49.8205C289.526 51.7766 288.732 53.6 287.9 55.2906C287.068 56.9812 286.235 58.3764 285.401 59.4762C284.561 60.5373 283.755 61.121 282.981 61.2273ZM330.683 56.6269C328.401 56.9403 326.482 56.317 324.928 54.7571C323.374 53.1971 322.406 51.0246 322.023 48.2397C321.885 47.234 321.874 46.1517 321.991 44.9928C322.141 43.7899 322.385 42.6924 322.721 41.7004C322.413 41.4668 322.15 41.1286 321.932 40.6856C321.708 40.2041 321.546 39.5958 321.445 38.8609C321.131 36.5788 321.231 34.4369 321.744 32.4354C322.258 30.4338 323.057 28.6492 324.142 27.0814C325.222 25.4749 326.483 24.1787 327.923 23.1926C329.403 22.2012 330.955 21.5939 332.58 21.3708C335.249 21.0043 337.548 21.6738 339.476 23.3794C341.4 25.0463 342.63 27.8331 343.166 31.7397C343.448 33.7897 343.425 35.921 343.099 38.1333C342.811 40.3404 342.28 42.502 341.506 44.6181C340.772 46.7289 339.834 48.6508 338.692 50.384C337.59 52.1118 336.348 53.5434 334.967 54.6789C333.619 55.7704 332.191 56.4197 330.683 56.6269ZM326.28 39.2018C326.554 39.4794 326.726 39.8696 326.795 40.3724C326.875 40.9526 326.838 41.5487 326.686 42.1608C326.572 42.7676 326.469 43.5897 326.375 44.6273C326.281 45.6648 326.361 47.1119 326.616 48.9685C326.871 50.8252 327.733 51.6526 329.203 51.4507C330.828 51.2276 332.249 50.3822 333.466 48.9145C334.678 47.4082 335.684 45.5556 336.486 43.3568C337.287 41.1581 337.819 38.8584 338.08 36.458C338.375 34.0135 338.379 31.7469 338.092 29.6582C337.906 28.3044 337.525 27.3913 336.948 26.9188C336.365 26.4077 335.416 26.2424 334.101 26.423C332.747 26.609 331.399 27.267 330.057 28.3972C328.748 29.4834 327.716 30.8665 326.962 32.5465C326.207 34.2265 325.963 36.0335 326.228 37.9674C326.287 38.3929 326.304 38.8044 326.28 39.2018ZM360.043 53.7178C358.69 53.9037 357.486 53.4582 356.431 52.3813C355.41 51.2605 354.685 49.1335 354.254 46.0004C353.803 42.7126 353.423 39.5136 353.114 36.4032C352.799 33.2542 352.627 30.4207 352.597 27.9027C352.605 25.3794 352.798 23.343 353.176 21.7935C353.555 20.244 354.208 19.4054 355.136 19.278C355.794 19.1877 356.424 19.4754 357.028 20.1413C357.627 20.7685 358.006 21.6623 358.165 22.8226C358.33 24.0217 358.434 25.6429 358.478 27.6861C358.522 29.7293 358.53 31.9352 358.5 34.3038C358.504 36.6284 358.539 38.8897 358.604 41.0877C358.664 43.2469 358.795 45.0615 358.997 46.5313C359.082 47.1502 359.171 47.6504 359.262 48.0319C359.388 48.3694 359.528 48.5275 359.682 48.5062C360.263 48.4265 360.812 47.8387 361.332 46.7427C361.885 45.6028 362.434 44.148 362.979 42.3786C363.519 40.5704 364.076 38.6022 364.651 36.474C365.22 34.3071 365.811 32.1569 366.425 30.0233C367.038 27.8898 367.695 25.9277 368.395 24.137C369.089 22.3076 369.832 20.8263 370.622 19.6931C371.407 18.5213 372.244 17.8742 373.134 17.7521C374.178 17.6086 375.214 17.9787 376.242 18.8622C377.303 19.7017 377.958 21.0304 378.208 22.8484C378.283 23.3899 378.335 24.3482 378.367 25.7232C378.392 27.0596 378.406 28.5946 378.408 30.3284C378.409 32.0622 378.411 33.796 378.413 35.5298C378.409 37.2249 378.42 38.7406 378.446 40.077C378.467 41.3747 378.514 42.2943 378.589 42.8358C378.865 44.8471 379.196 45.8263 379.583 45.7731C380.666 45.6244 381.714 44.7908 382.727 43.2723C383.774 41.7099 384.767 39.7606 385.708 37.4245C386.681 35.0445 387.612 32.493 388.499 29.7702C389.419 27.0033 390.298 24.3605 391.134 21.8416C391.506 20.5295 391.836 19.6368 392.126 19.1635C392.449 18.6462 392.804 18.361 393.191 18.3079C393.732 18.2336 394.275 18.4546 394.819 18.971C395.401 19.4822 395.762 20.2406 395.9 21.2463C395.947 21.5944 395.976 21.9452 395.985 22.2986C395.989 22.6133 395.94 22.9747 395.838 23.3828C395.001 27.0446 394.033 30.4683 392.934 33.6538C391.829 36.8006 390.635 39.5853 389.352 42.0079C388.102 44.3864 386.808 46.2982 385.469 47.7431C384.126 49.1493 382.816 49.9401 381.539 50.1154C379.334 50.4182 377.528 50.0357 376.12 48.9679C374.746 47.8562 373.913 46.2366 373.621 44.1092C373.498 43.2196 373.397 42.0512 373.316 40.6041C373.275 39.1517 373.236 37.5806 373.201 35.8908C373.205 34.1957 373.216 32.5586 373.236 30.9796C373.256 29.4005 373.263 28.0202 373.259 26.8385C373.293 25.6516 373.3 24.8427 373.28 24.4119C373.244 23.8651 373.149 23.6023 372.994 23.6235C372.84 23.6448 372.599 24.1901 372.273 25.2595C371.981 26.285 371.628 27.5944 371.217 29.1879C370.838 30.7374 370.429 32.3503 369.989 34.0265C369.494 35.868 368.906 37.8995 368.225 40.121C367.579 42.2986 366.841 44.39 366.013 46.3954C365.224 48.3954 364.331 50.0747 363.336 51.4331C362.34 52.7916 361.242 53.5531 360.043 53.7178Z" fill="#FFB746"/>
</svg>
