<svg width="166" height="217" viewBox="0 0 166 217" fill="none" xmlns="http://www.w3.org/2000/svg">
<path d="M23.377 -36.2391C5.96537 -6.49435 -10.3718 33.1798 17.4172 61.231C25.1151 69.0015 33.1158 75.13 43.3708 78.8218C58.7592 84.3616 74.9458 86.6079 91.2408 86.6079C101.613 86.6079 108.724 80.4577 112.388 71.0357C117.972 56.6776 107.376 43.8256 95.278 37.7767C52.1264 16.2008 28.7189 70.9437 42.7941 105.641C57.4493 141.767 92.0797 162.784 126.807 177.253C144.613 184.673 162.628 190.466 180.925 196.478C194.933 201.081 209.243 204.689 223.508 208.398C232.208 210.66 242.507 214.646 251.769 214.646" stroke="#FFB746" stroke-width="3" stroke-linecap="round"/>
</svg>
