<svg width="489" height="468" viewBox="0 0 489 468" fill="none" xmlns="http://www.w3.org/2000/svg">
<path d="M423.683 442.305C423.683 450.002 349.145 456.228 257.232 456.228C165.319 456.228 90.7812 450.002 90.7812 442.305C90.7812 434.665 165.319 428.439 257.232 428.439C349.145 428.439 423.683 434.665 423.683 442.305Z" fill="#EBF4FA"/>
<path d="M328.543 418.647C328.543 418.647 353.898 425.835 365.897 426.345L380.272 432.91C382.197 433.815 382.763 436.249 381.348 437.834C380.612 438.739 379.367 439.135 378.235 438.852L365.444 435.796L333.184 436.023L328.543 418.647Z" fill="#F2C7C4"/>
<path d="M320.055 433.872C321.47 441.682 339.184 438.853 345.353 438.853C349.994 438.853 358.88 438.683 362.898 438.57C364.2 438.57 365.332 437.721 365.728 436.532C366.351 434.721 365.162 432.797 363.295 432.514L348.919 430.25L326.959 418.251L320.055 433.872Z" fill="#F2C7C4"/>
<path d="M336.184 421.025L365.897 424.477L374.952 433.137C376.084 434.212 376.197 435.966 375.179 437.212C374.217 438.4 372.462 438.683 371.16 437.778L363.293 432.514L336.184 433.137V421.025Z" fill="#F2C7C4"/>
<path d="M318.584 265.78C330.016 310.944 335.053 402.235 335.053 402.235L301.435 400.65L297.926 274.383L318.584 265.78Z" fill="#F2C7C4"/>
<path d="M213.2 261.705C196.391 308.228 201.145 352.939 179.016 424.42L198.711 433.872C225.425 386.897 239.8 275.458 239.8 275.458L213.2 261.705Z" fill="#F2C7C4"/>
<path d="M190.223 418.647C190.223 418.647 164.867 425.835 152.869 426.345L138.493 432.91C136.569 433.815 136.003 436.249 137.418 437.834C138.154 438.739 139.399 439.135 140.531 438.852L153.322 435.796L185.582 436.023L190.223 418.647Z" fill="#F2C7C4"/>
<path d="M198.712 433.872C197.297 441.682 179.526 438.853 173.413 438.853C168.716 438.853 159.887 438.683 155.869 438.57C154.567 438.57 153.435 437.721 153.039 436.532C152.416 434.721 153.548 432.797 155.472 432.514L169.848 430.25L191.807 418.251L198.712 433.872Z" fill="#F2C7C4"/>
<path d="M182.58 421.025L152.867 424.477L143.811 433.137C142.679 434.212 142.566 435.966 143.585 437.212C144.547 438.4 146.302 438.683 147.603 437.778L155.47 432.514L182.58 433.137V421.025Z" fill="#F2C7C4"/>
<path d="M225.425 343.997L209.691 396.801C209.691 396.801 207.031 438.853 258.591 437.947C310.15 436.985 318.583 405.574 318.583 405.574L296.284 343.997H225.425Z" fill="#345870"/>
<path d="M215.748 377.898C215.069 381.52 214.673 383.105 214.673 383.105C214.673 383.105 254.008 402.348 314.623 382.03L314 375.068L309.982 327.64L310.038 327.584L312.246 326.848L312.698 326.678L337.714 317.962C336.733 314.302 335.771 310.793 334.828 307.435C327.131 279.816 321.244 263.63 315.245 258.309C310.095 253.782 301.662 254.801 289.72 259.724C282.872 262.554 274.835 266.686 265.61 271.779C265.61 271.779 256.158 265.497 245.009 260.46C234.821 255.819 223.276 252.254 216.314 255.366C207.259 259.498 199.392 289.494 195.713 305.624C194.355 311.737 193.562 315.812 193.562 315.812L219.993 322.773L222.936 323.565L223.332 323.679H223.446C220.106 353.448 217.276 370.201 215.748 377.898Z" fill="#19918F"/>
<path d="M214.672 383.105C214.672 383.105 254.007 402.348 314.622 382.03L313.999 375.068C283.437 380.785 236.235 379.03 215.747 377.898C215.068 381.52 214.672 383.105 214.672 383.105Z" fill="#0F5756"/>
<path d="M310.941 318.132L312.243 326.848L312.696 326.678L337.712 317.962C336.731 314.302 335.768 310.793 334.825 307.435L310.941 318.132Z" fill="#0F5756"/>
<path d="M243.875 267.761C243.875 280.835 254.402 291.362 267.476 291.362C280.493 291.362 291.077 280.835 291.077 267.761C291.077 264.931 290.624 262.214 289.718 259.724C282.87 262.554 274.833 266.685 265.608 271.779C265.608 271.779 256.156 265.497 245.007 260.46C244.271 262.78 243.875 265.214 243.875 267.761Z" fill="#0F5756"/>
<path d="M247.047 350.053C248.688 348.978 251.348 349.317 253.272 349.147C255.385 348.959 257.46 348.732 259.498 348.468C263.686 347.846 267.818 346.997 271.949 346.034C280.156 343.997 288.192 341.224 295.776 337.488C297.644 336.526 299.229 339.299 297.361 340.262C289.664 344.45 281.514 347.959 273.081 350.336C268.836 351.524 264.535 352.43 260.177 353.109C258.064 353.449 255.951 353.713 253.838 353.901C251.688 354.128 249.028 354.75 247.047 353.788C245.462 353.052 245.688 350.845 247.047 350.053Z" fill="#0F5756"/>
<path d="M247.102 337.658C248.913 337.035 251.29 337.828 253.157 338.054C255.233 338.243 257.327 338.337 259.44 338.337C263.515 338.337 267.646 337.998 271.664 337.092C273.589 336.696 274.325 339.526 272.4 340.092C268.155 341.337 263.854 342.186 259.44 342.469C257.251 342.657 255.082 342.695 252.931 342.582C250.667 342.469 248.007 342.525 246.196 341.054C244.894 339.978 245.8 338.167 247.102 337.658Z" fill="#0F5756"/>
<path d="M248.743 388.086C240.593 377.389 188.807 327.075 173.073 351.524C157.396 376.031 177.375 411.913 213.257 429.175C249.139 446.493 279.984 429.005 248.743 388.086Z" fill="#345870"/>
<path d="M171.15 370.71C176.356 382.709 184.959 392.783 194.467 401.612C199.448 406.31 204.768 410.554 210.258 414.686C215.465 418.591 220.785 422.553 226.275 426.232C231.708 429.854 237.537 432.853 244.216 433.08C245.687 433.136 245.518 435.23 244.159 435.344C238.103 435.853 232.274 433.08 227.293 429.967C221.69 426.458 216.427 422.44 211.163 418.534C200.127 410.385 189.43 401.612 181.111 390.632C176.639 384.633 172.904 378.181 170.357 371.106C170.187 370.597 170.923 370.144 171.15 370.71Z" fill="#3A6885"/>
<path d="M232.728 371.333C242.123 378.521 250.386 387.463 256.102 397.877C257.687 400.82 259.121 403.857 260.403 406.989C261.026 408.517 258.649 409.592 258.026 408.008C253.725 397.254 247.386 387.293 239.406 378.86C237.142 376.427 234.765 374.163 232.218 372.069C231.822 371.673 232.275 371.05 232.728 371.333Z" fill="#3A6885"/>
<path d="M326.223 458.605L341.391 419.61C336.071 418.025 331.43 417.572 331.43 417.572L311.734 454.926C323.45 459.567 326.223 458.605 326.223 458.605Z" fill="white"/>
<path d="M316.377 452.096C314.943 453.228 313.415 454.171 311.793 454.926C309.642 454.077 306.869 452.889 303.473 451.474C300.304 450.115 296.568 448.474 292.38 446.72C287.796 444.739 282.589 442.531 276.759 440.154C276.646 433.023 277.552 425.156 279.816 418.308C291.531 420.629 310.265 417.799 323.735 417.289C327.244 417.176 329.96 417.233 331.432 417.572C333.016 419.497 329.338 441.909 316.377 452.096Z" fill="#3A6885"/>
<path d="M257.517 410.781C255.763 409.989 253.895 409.083 251.914 408.064C253.914 409.083 255.781 409.989 257.517 410.781Z" fill="#E0954A"/>
<path d="M239.914 401.782V401.839C240.555 402.178 241.197 402.518 241.838 402.858C241.197 402.518 240.555 402.16 239.914 401.782Z" fill="#E0954A"/>
<path d="M279.815 418.308C277.551 425.157 276.645 433.024 276.758 440.155C266.854 436.08 253.893 434.891 240.763 430.024L239.914 401.839C240.555 402.178 241.197 402.518 241.838 402.858C243.083 403.537 244.291 404.178 245.461 404.782C246.592 405.386 247.706 405.97 248.8 406.536C249.894 407.065 250.932 407.574 251.913 408.064C253.912 409.083 255.78 409.989 257.516 410.781C260.515 412.196 263.232 413.328 265.722 414.29C266.401 414.592 267.099 414.856 267.816 415.082C268.156 415.196 268.495 415.309 268.835 415.422C269.514 415.648 270.137 415.875 270.816 416.101C271.155 416.177 271.495 416.271 271.835 416.384C272.476 416.573 273.117 416.761 273.759 416.95C275.74 417.46 277.721 417.912 279.815 418.308Z" fill="#F2C7C4"/>
<path d="M303.643 451.531C300.361 450.172 296.569 448.474 292.211 446.663C295.72 445.475 302.115 446.776 303.643 451.531Z" fill="white"/>
<path d="M331.49 417.573C334.886 422.553 331.037 444.399 316.379 452.097C311.115 436.646 316.945 416.724 331.49 417.573Z" fill="white"/>
<path fill-rule="evenodd" clip-rule="evenodd" d="M284.683 410.045C289.097 413.441 292.323 419.554 292.833 425.326C293.059 424.194 293.342 422.949 293.965 422.1C294.304 421.534 295.097 422.044 295.04 422.666C294.87 423.968 294.304 425.27 293.965 426.515C293.625 427.798 293.361 429.118 293.172 430.477C292.776 433.193 292.493 435.967 292.606 438.796C292.606 439.193 292.097 439.193 292.04 438.796C291.757 436.306 291.701 433.759 291.871 431.269C290.965 435.004 288.814 438.513 286.437 441.06C284.456 443.268 281.23 446.211 277.948 444.796C274.665 443.437 274.212 438.91 275.458 436.08C276.873 432.91 279.646 430.533 282.532 429.062C284.513 428.1 286.607 427.59 288.814 427.477C286.098 426.119 283.664 424.081 281.683 421.478C279.702 418.874 277.212 414.686 277.948 411.347C278.231 409.819 279.306 408.63 280.778 408.517C282.136 408.404 283.551 409.196 284.683 410.045ZM290.965 428.835C291.003 428.835 291.022 428.835 291.022 428.835C288.248 428.779 285.532 429.345 283.098 430.646C280.608 431.948 278.174 433.986 276.873 436.646C276.193 438.117 275.854 439.872 276.59 441.513C277.269 443.041 278.627 443.777 280.099 443.55C282.928 443.098 285.419 440.211 287.06 437.891C288.984 435.174 289.946 432.118 290.965 428.835ZM281.061 410.045C279.419 410.215 279.136 412.253 279.476 413.837C280.155 416.78 282.023 419.78 284.06 421.931C286.154 424.251 288.758 426.119 291.531 427.137C291.569 427.175 291.607 427.194 291.644 427.194C291.418 424.308 290.795 421.421 289.607 418.705C288.362 416.045 286.607 413.554 284.513 411.687C283.551 410.838 282.249 409.932 281.061 410.045Z" fill="white"/>
<path d="M298.381 424.364C296.683 429.515 296.797 435.457 298.211 440.947C298.325 441.4 299.004 441.287 298.947 440.834C298.381 438.174 298.098 435.401 298.211 432.741C298.268 430.024 298.777 427.534 299.4 424.987C299.457 424.76 299.457 424.364 299.23 424.195C299.117 424.138 299.06 424.081 298.947 424.081C298.721 424.025 298.438 424.138 298.381 424.364Z" fill="white"/>
<path d="M305.113 424.307C302.906 429.175 301.887 435.004 301.831 440.607C301.774 441.286 302.736 441.569 302.736 440.89C302.962 438.117 303.302 435.4 303.868 432.74C304.491 430.024 305.34 427.477 306.302 424.93C306.585 424.138 305.453 423.515 305.113 424.307Z" fill="white"/>
<path d="M311.059 424.477C310.983 424.477 310.927 424.477 310.889 424.477C310.662 424.534 310.549 424.76 310.493 424.987C310.21 426.345 309.7 427.703 309.417 429.062C309.116 430.458 308.87 431.873 308.682 433.306C308.304 436.136 308.191 439.004 308.342 441.909C308.399 442.475 309.248 442.588 309.248 442.022C309.248 439.192 309.417 436.363 309.814 433.589C310.002 432.269 310.247 430.967 310.549 429.684C310.832 428.269 311.115 426.741 311.681 425.439C311.738 425.213 311.681 424.987 311.568 424.76C311.53 424.723 311.493 424.685 311.455 424.647C311.398 424.477 311.228 424.421 311.059 424.477Z" fill="white"/>
<path d="M239.575 432.684L257.856 437.098L266.345 411.347L235.727 393.406L239.575 432.684Z" fill="#345870"/>
<path d="M329.903 367.937C316.999 371.446 250.837 400.593 267.647 424.307C284.399 448.078 325.205 443.041 354.692 416.214C384.179 389.444 379.595 354.354 329.903 367.937Z" fill="#345870"/>
<path d="M208.108 463.133L191.582 424.647C196.846 422.893 201.43 422.27 201.43 422.27L222.427 458.888C210.938 463.925 208.108 463.133 208.108 463.133Z" fill="white"/>
<path d="M253.101 421.138C255.591 427.873 256.78 435.74 256.893 442.927C251.177 445.474 246.083 447.851 241.555 450.002C237.367 451.926 233.745 453.681 230.632 455.152C227.237 456.68 224.52 457.982 222.426 458.944C220.766 458.19 219.2 457.284 217.728 456.228C204.428 446.55 199.9 424.251 201.428 422.27C202.9 421.873 205.617 421.704 209.126 421.76C222.596 421.76 241.442 423.911 253.045 421.138H253.101Z" fill="#3A6885"/>
<path d="M275.117 412.875C276.815 411.969 278.626 411.064 280.607 409.932C278.645 411.026 276.815 412.007 275.117 412.875Z" fill="#E0954A"/>
<path d="M292.493 431.495C279.532 436.815 266.685 438.457 256.894 442.928C256.78 435.74 255.592 427.873 253.102 421.138C255.139 420.685 257.12 420.176 259.044 419.553C259.686 419.365 260.327 419.157 260.968 418.931C261.308 418.817 261.648 418.704 261.987 418.591C262.61 418.365 263.289 418.138 263.912 417.912C264.308 417.799 264.647 417.629 264.987 417.516C265.666 417.252 266.345 416.969 267.024 416.667C269.458 415.648 272.118 414.403 275.118 412.875C276.816 412.007 278.645 411.026 280.608 409.932C281.589 409.404 282.588 408.856 283.607 408.29C283.645 408.29 283.664 408.29 283.664 408.29C284.72 407.687 285.814 407.064 286.946 406.423C288.078 405.781 289.267 405.102 290.512 404.385C291.116 404.008 291.738 403.631 292.38 403.253L292.493 431.495Z" fill="#F2C7C4"/>
<path d="M230.465 455.209C233.691 453.737 237.426 451.926 241.728 449.945C238.105 448.87 231.823 450.455 230.465 455.209Z" fill="white"/>
<path d="M201.43 422.27C198.204 427.363 202.845 449.04 217.729 456.228C222.427 440.607 215.862 420.911 201.43 422.27Z" fill="white"/>
<path fill-rule="evenodd" clip-rule="evenodd" d="M251.742 411.403C253.271 411.46 254.346 412.592 254.686 414.12C255.534 417.459 253.214 421.76 251.29 424.42C249.422 427.08 247.045 429.174 244.385 430.646C246.592 430.703 248.743 431.099 250.724 432.061C253.667 433.363 256.553 435.683 258.025 438.796C259.44 441.569 259.1 446.097 255.874 447.568C252.648 449.096 249.365 446.267 247.215 444.173C244.781 441.682 242.517 438.286 241.499 434.551C241.782 437.041 241.781 439.532 241.555 442.078C241.555 442.475 241.046 442.475 241.046 442.078C240.989 439.249 240.65 436.532 240.14 433.815C239.914 432.457 239.612 431.136 239.235 429.854C238.838 428.608 238.216 427.363 238.046 426.062C237.933 425.439 238.725 424.93 239.065 425.439C239.687 426.288 240.027 427.533 240.31 428.665C240.593 422.836 243.593 416.667 247.894 413.101C249.026 412.195 250.384 411.346 251.742 411.403ZM246.536 441.003C248.29 443.267 250.837 446.04 253.723 446.38C255.138 446.55 256.497 445.814 257.119 444.229C257.798 442.588 257.402 440.833 256.666 439.418C255.251 436.758 252.761 434.834 250.214 433.589C247.781 432.4 245.008 431.948 242.234 432.061C242.272 432.061 242.291 432.08 242.291 432.117C243.423 435.343 244.498 438.343 246.536 441.003ZM248.177 414.686C246.083 416.667 244.442 419.213 243.31 421.93C242.178 424.647 241.668 427.59 241.555 430.476C241.593 430.438 241.631 430.42 241.668 430.42C244.385 429.288 246.932 427.363 248.969 424.986C250.894 422.722 252.705 419.666 253.271 416.667C253.554 415.082 253.214 413.044 251.516 412.931C250.328 412.875 249.082 413.837 248.177 414.686Z" fill="white"/>
<path d="M234.765 427.873C236.576 432.966 236.689 438.909 235.444 444.455C235.388 444.908 234.708 444.795 234.765 444.342C235.218 441.682 235.388 438.909 235.218 436.249C235.048 433.532 234.482 431.042 233.746 428.552C233.633 428.269 233.633 427.929 233.859 427.759C233.973 427.703 234.029 427.646 234.142 427.59C234.369 427.533 234.652 427.646 234.765 427.873Z" fill="white"/>
<path d="M228.028 428.042C230.405 432.853 231.594 438.626 231.877 444.229C231.934 444.908 231.028 445.191 230.971 444.512C230.688 441.795 230.179 439.079 229.556 436.475C228.877 433.759 227.859 431.268 226.84 428.722C226.557 427.929 227.632 427.307 228.028 428.042Z" fill="white"/>
<path d="M222.089 428.439C222.126 428.439 222.183 428.439 222.258 428.439C222.485 428.495 222.598 428.722 222.655 428.948C222.994 430.306 223.56 431.608 223.9 432.966C224.239 434.362 224.522 435.777 224.749 437.211C225.239 440.003 225.466 442.852 225.428 445.757C225.371 446.323 224.522 446.436 224.522 445.87C224.409 443.097 224.126 440.267 223.617 437.551C223.39 436.23 223.107 434.928 222.768 433.646C222.428 432.231 222.089 430.759 221.523 429.401C221.409 429.231 221.466 428.948 221.579 428.778C221.617 428.703 221.636 428.646 221.636 428.608C221.749 428.439 221.919 428.382 222.089 428.439Z" fill="white"/>
<path d="M292.722 399.235C292.043 399.405 258.82 416.78 258.82 416.78L268.385 441.06L300.645 434.212L292.722 399.235Z" fill="#345870"/>
<path d="M259.498 416.554C263.46 414.233 267.648 412.309 271.949 410.554C271.911 409.988 271.911 409.422 271.949 408.856C272.175 403.536 274.609 398.499 278.344 394.764C278.684 394.424 279.25 394.934 278.91 395.273C275.401 398.952 273.534 403.933 273.76 408.97C273.817 411.177 274.269 413.384 275.118 415.478C275.496 416.459 275.948 417.421 276.477 418.365C277.099 419.327 278.005 420.289 278.401 421.364C278.741 422.27 277.552 423.232 276.76 422.723C275.684 422.044 275.005 420.685 274.383 419.61C273.817 418.478 273.251 417.289 272.911 416.101C272.534 414.893 272.251 413.667 272.062 412.422C268.214 414.233 264.478 416.384 260.856 418.535C263.063 425.213 265.61 431.778 268.497 438.174C273.081 435.966 278.401 434.721 283.495 434.948C282.872 434.212 282.25 433.419 281.74 432.57C280.665 430.59 280.099 428.496 279.929 426.288C279.873 425.835 280.552 425.722 280.665 426.175C281.004 428.156 281.967 430.024 283.212 431.608C283.665 432.174 284.174 432.74 284.74 433.193C284.853 433.155 285.004 433.136 285.193 433.136C298.04 433.25 310.888 430.759 322.829 426.005C334.658 421.251 345.694 414.46 355.089 405.8C360.41 400.876 365.333 395.443 369.408 389.444C369.748 388.991 370.54 389.387 370.201 389.897C366.692 395.387 362.73 400.593 358.146 405.234C353.561 409.932 348.468 414.177 343.091 417.912C332.338 425.326 320.113 430.646 307.322 433.419C300.983 434.778 294.474 435.57 287.966 435.683C288.305 436.023 288.362 436.532 288.136 436.985C287.796 437.551 287.06 437.721 286.494 437.438C286.042 437.211 285.589 436.872 285.193 436.532C285.023 436.815 284.74 437.042 284.287 437.042C281.57 437.042 278.854 437.155 276.137 437.777C273.496 438.381 270.949 439.324 268.497 440.607C268.044 440.834 267.251 440.777 266.969 440.211C263.742 433.08 261.139 425.722 259.102 418.195C258.762 417.686 258.819 416.95 259.498 416.554Z" fill="#3A6885"/>
<path d="M225.652 304.775C230.972 304.209 236.293 305.171 241.613 305.454C246.857 305.794 252.102 305.945 257.346 305.907C267.873 305.851 278.4 305.115 288.871 303.87C294.813 303.134 300.813 302.398 306.755 301.889C308.793 301.719 308.68 304.662 307.038 305.171C296.908 308.624 286.098 310.039 275.457 310.831C264.761 311.68 254.064 311.793 243.424 311.227C240.518 311.076 237.613 310.869 234.708 310.605C231.482 310.322 228.482 310.039 225.483 308.907C223.671 308.228 223.389 305.058 225.652 304.775Z" fill="#EBF4FA"/>
<path d="M224.125 317.736C235.274 319.094 246.311 320.792 257.517 321.471C268.553 322.094 279.703 321.924 290.739 321.302C297.134 320.905 303.53 320.792 309.812 319.943C311.68 319.717 312.302 322.377 310.435 322.716C304.945 323.848 299.455 325.15 293.852 325.886C288.136 326.622 282.363 327.074 276.59 327.244C265.214 327.64 253.725 327.244 242.405 325.942C235.953 325.207 229.501 324.245 223.219 322.603C220.389 321.868 221.182 317.34 224.125 317.736Z" fill="#EBF4FA"/>
<path d="M307.489 301.04C307.263 301.549 307.432 302.002 307.715 302.341C307.715 302.417 307.715 302.511 307.715 302.624C308.055 306.926 308.338 311.227 308.678 315.472C308.866 317.585 309.055 319.679 309.243 321.754C309.357 323.735 309.413 325.716 310.036 327.584L312.696 326.678C312.752 325.037 312.583 323.452 312.413 321.754C312.224 319.566 312.036 317.377 311.847 315.189C311.451 311.001 311.055 306.813 310.602 302.624C310.602 302.398 310.583 302.172 310.545 301.945C311.281 300.87 311.79 299.625 312.243 298.493C312.809 297.172 313.318 295.833 313.771 294.474C314.62 291.758 315.243 288.928 315.639 286.042C315.695 285.476 315.469 284.91 314.847 284.74C314.337 284.627 313.658 284.91 313.545 285.532C313.13 288.287 312.394 290.965 311.338 293.569C310.941 294.531 310.432 295.493 309.979 296.455C309.243 289.947 308.451 283.382 307.715 276.873C307.602 275.967 306.187 275.911 306.244 276.873C306.697 284.853 307.093 292.833 307.602 300.757C307.564 300.87 307.527 300.964 307.489 301.04Z" fill="#0F5756"/>
<path d="M217.897 291.928C218.576 294.645 219.142 297.361 219.765 300.134C220.104 301.436 220.444 302.794 220.783 304.153C221.066 305.228 221.123 306.756 221.915 307.662C221.651 310.303 221.368 312.925 221.066 315.529C220.783 317.962 220.331 320.339 219.991 322.773L223.33 323.679C223.783 320.962 223.953 318.189 224.236 315.529C224.613 311.907 224.84 308.284 224.915 304.662C225.085 297.135 225.028 289.721 224.462 282.25C224.406 281.231 222.878 281.231 222.878 282.25C223.047 288.419 222.991 294.701 222.538 300.87C222.387 300.417 222.255 299.965 222.142 299.512C221.293 296.795 220.387 294.135 219.595 291.475C219.255 290.4 217.671 290.853 217.897 291.928Z" fill="#0F5756"/>
<path d="M193.562 315.811L219.993 322.773L222.936 323.565L224.238 315.528L195.713 305.624C194.355 311.736 193.562 315.811 193.562 315.811Z" fill="#0F5756"/>
<path d="M298.27 238.331L290.12 240.255C285.931 241.33 281.63 238.67 280.611 234.482L278.178 224.408C277.159 220.163 279.762 215.919 284.007 214.9L292.101 212.919C296.345 211.9 300.59 214.504 301.665 218.748L304.042 228.823C305.061 233.067 302.458 237.312 298.27 238.331Z" fill="white"/>
<path d="M288.083 239.972C284.857 239.972 282.027 237.765 281.235 234.539L278.688 224.012C277.782 220.22 280.103 216.371 283.895 215.466L286.894 214.786C287.423 214.636 287.97 214.56 288.536 214.56C291.818 214.56 294.648 216.767 295.441 219.993L297.987 230.52C298.44 232.388 298.101 234.256 297.138 235.897C296.12 237.482 294.592 238.614 292.724 239.066L289.781 239.802C289.215 239.915 288.649 239.972 288.083 239.972Z" fill="#D9DADE"/>
<path fill-rule="evenodd" clip-rule="evenodd" d="M296.005 219.88L298.552 230.407C299.514 234.482 296.967 238.614 292.892 239.632L289.892 240.312C289.289 240.462 288.685 240.538 288.081 240.538C284.629 240.538 281.516 238.217 280.667 234.709L278.12 224.182C277.158 220.05 279.648 215.918 283.78 214.956L286.78 214.221C287.383 214.07 287.968 213.994 288.534 213.994C291.987 213.994 295.156 216.371 296.005 219.88ZM288.534 215.126C288.044 215.126 287.534 215.183 287.006 215.296L284.063 216.032C282.365 216.428 280.894 217.503 279.988 218.975C279.082 220.446 278.856 222.201 279.252 223.899L281.799 234.426C282.478 237.369 285.082 239.406 288.081 239.406C288.61 239.406 289.138 239.349 289.666 239.236L292.609 238.5C296.118 237.652 298.269 234.143 297.42 230.634L294.873 220.107C294.194 217.164 291.59 215.126 288.534 215.126Z" fill="#0F5756"/>
<path d="M236.916 237.595C231.2 231.2 227.691 221.125 227.691 221.125C224.522 222.031 221.182 218.918 223.729 215.409C218.126 215.296 226.955 197.242 238.501 201.034L247.839 234.256L236.916 237.595Z" fill="#345870"/>
<path d="M283.723 193.959C293.514 206.184 292.212 222.936 292.212 222.936L276.195 198.317L283.723 193.959Z" fill="#345870"/>
<path d="M280.95 235.274L281.177 246.594L281.516 259.611L281.856 266.459C282.195 273.986 276.649 280.495 269.178 281.344C261.594 282.136 254.746 276.929 253.501 269.402L247.105 229.501L280.95 235.274Z" fill="#F2C7C4"/>
<path d="M281.288 244.217L281.627 261.309C267.139 262.724 257.234 252.253 254.574 244.387C260.8 242.292 281.288 244.217 281.288 244.217Z" fill="#345870"/>
<path d="M239.748 234.312C236.805 234.029 233.466 235.218 232.107 237.934C230.919 240.142 231.372 242.858 232.334 245.179C233.522 248.178 235.56 250.895 238.333 252.536C241.106 254.178 244.672 254.687 247.671 253.555C250.671 252.367 253.048 249.48 253.218 246.254C253.558 240.085 245.125 234.878 239.748 234.312Z" fill="#F2C7C4"/>
<path d="M246.253 244.16C243.31 242.123 240.254 242.236 236.971 243.085C236.518 243.198 236.632 244.047 237.141 243.991C239.801 243.651 242.97 245.179 244.895 246.594C245.121 246.764 245.63 246.82 245.97 246.707C246.253 246.594 246.649 246.368 246.762 246.028C247.159 245.292 246.876 244.556 246.253 244.16Z" fill="#345870"/>
<path d="M280.89 200.411C277.947 198.034 274.212 196.959 270.307 196.902C260.233 196.676 248.63 202.845 243.763 210.089C236.632 220.729 238.896 233.407 246.027 242.858C249.31 247.216 253.554 250.952 258.422 253.385C266.968 257.743 277.947 258.706 285.645 253.046C291.191 248.914 294.247 241.953 294.643 235.048C295.379 223.389 290.285 207.882 280.89 200.411Z" fill="#F2C7C4"/>
<path d="M285.361 220.956C285.984 222.257 285.701 223.786 284.739 224.238C283.833 224.748 282.532 224.069 281.909 222.767C281.286 221.465 281.569 219.937 282.532 219.484C283.494 218.975 284.739 219.654 285.361 220.956Z" fill="#345870"/>
<path d="M270.592 227.294C271.214 228.596 270.931 230.068 270.026 230.577C269.064 231.086 267.818 230.407 267.196 229.105C266.573 227.747 266.8 226.276 267.762 225.766C268.724 225.257 269.969 225.936 270.592 227.294Z" fill="#345870"/>
<path d="M282.59 227.238C280.157 224.408 277.61 221.748 275.063 219.088C274.78 218.861 274.384 219.144 274.61 219.484C276.534 221.804 278.459 224.068 280.439 226.332C281.458 227.407 282.647 228.483 283.213 229.898C283.609 231.086 283.156 232.218 282.534 233.18C282.364 233.463 282.534 233.859 282.873 233.746C284.005 233.576 284.628 232.331 284.571 231.256C284.514 229.671 283.552 228.37 282.59 227.238Z" fill="#345870"/>
<path d="M286.096 206.92C284.681 204.882 278.342 207.486 278.003 209.919C277.606 213.089 288.586 210.315 286.096 206.92Z" fill="#345870"/>
<path d="M263.741 216.824C261.817 214.673 254.799 218.295 254.685 221.182C254.516 226.162 266.061 219.484 263.741 216.824Z" fill="#345870"/>
<path d="M273.928 238.67C274.041 238.048 279.757 237.538 280.38 238.217C280.833 238.614 279.814 241.047 277.38 241.217C275.343 241.33 273.815 239.463 273.928 238.67Z" fill="white"/>
<path d="M246.595 210.089C252.255 218.975 253.5 239.123 246.652 236.746C239.747 234.312 237.313 234.426 237.313 234.426C213.486 211.164 230.748 192.091 246.595 210.089Z" fill="#345870"/>
<path d="M247.726 212.41C252.763 199.279 259.555 197.015 274.327 203.92C278.684 205.901 290.626 205.505 291.306 200.524C291.702 197.185 287.797 196.223 287.797 196.223C295.437 193.959 292.154 186.884 286.155 190.167C296.06 181.791 288.306 174.943 282.024 180.376C277.156 184.564 273.251 186.318 266.346 184.507C256.102 181.791 238.501 186.375 237.086 203.354L247.726 212.41Z" fill="#345870"/>
<path d="M259.044 234.313L291.87 226.106C298.322 224.465 302.17 217.617 300.416 210.768C298.718 203.977 292.096 199.732 285.644 201.373L252.818 209.58C246.366 211.221 242.518 218.069 244.272 224.918C245.97 231.709 252.592 235.954 259.044 234.313Z" fill="white"/>
<path fill-rule="evenodd" clip-rule="evenodd" d="M300.417 210.768C302.171 217.616 298.549 224.408 292.38 225.993L267.194 232.275C266.327 232.501 265.459 232.615 264.591 232.615C259.328 232.615 254.347 228.596 252.875 222.71C251.178 215.919 254.8 209.127 260.969 207.542L286.154 201.26C287.022 201.034 287.871 200.92 288.701 200.92C294.021 200.92 298.945 204.939 300.417 210.768ZM286.437 202.335L261.252 208.674C255.649 210.032 252.423 216.258 254.007 222.427C255.309 227.691 259.78 231.483 264.591 231.483C265.383 231.483 266.157 231.388 266.911 231.2L292.097 224.861C297.643 223.446 300.926 217.277 299.341 211.051C298.04 205.844 293.568 202.052 288.701 202.052C287.947 202.052 287.192 202.147 286.437 202.335Z" fill="#0F5756"/>
<path d="M290.738 221.578L280.268 224.182L276.759 225.087L275.287 225.483L269.118 227.012L268.835 227.068C268.382 227.181 267.93 227.257 267.477 227.295C263.572 227.578 259.95 225.087 258.987 221.182C257.855 216.824 260.516 212.41 264.873 211.334L275.966 208.561L282.079 207.033L283.55 206.637L286.776 205.844C286.852 205.807 286.946 205.788 287.059 205.788C287.437 205.712 287.795 205.656 288.135 205.618C291.983 205.335 295.662 207.825 296.624 211.73C297.699 216.088 295.096 220.503 290.738 221.578Z" fill="#D9DADE"/>
<path d="M282.701 205.618L274.891 226.842L267.816 228.596L275.683 207.373L282.701 205.618Z" fill="white"/>
<path d="M288.475 204.146L280.608 225.37L276.59 226.389L284.457 205.165L288.136 204.203C288.249 204.203 288.362 204.184 288.475 204.146Z" fill="white"/>
<path d="M288.7 215.692L270.533 220.22C269.401 220.503 268.269 219.824 267.986 218.748C267.703 217.616 268.382 216.484 269.514 216.201L287.738 211.674C288.814 211.391 289.946 212.07 290.228 213.145C290.511 214.277 289.832 215.409 288.7 215.692Z" fill="#E47272"/>
<path d="M250.385 252.31L242.462 254.914C238.33 256.272 233.859 254.008 232.501 249.877L229.275 240.029C227.916 235.897 230.124 231.426 234.312 230.068L242.179 227.464C246.31 226.106 250.782 228.37 252.14 232.501L255.422 242.349C256.781 246.481 254.517 250.895 250.385 252.31Z" fill="white"/>
<path d="M236.636 234.596L237.541 234.313C240.258 233.407 243.144 234.879 244.05 237.595L245.861 243.028C246.766 245.745 245.295 248.688 242.578 249.537L241.673 249.877C238.956 250.782 236.07 249.311 235.164 246.594L233.353 241.161C232.448 238.444 233.919 235.501 236.636 234.596Z" fill="#D9DADE"/>
<path fill-rule="evenodd" clip-rule="evenodd" d="M246.652 234.086L250.047 244.33C251.349 248.349 249.199 252.707 245.18 254.008L242.237 254.97C241.445 255.235 240.652 255.367 239.86 255.367C236.634 255.367 233.634 253.329 232.616 250.103L229.163 239.802C227.862 235.784 230.069 231.483 234.031 230.181L236.974 229.219C237.766 228.955 238.558 228.823 239.351 228.823C242.577 228.823 245.576 230.86 246.652 234.086ZM237.313 230.294L234.427 231.256C232.785 231.766 231.427 232.954 230.635 234.482C229.842 236.067 229.729 237.822 230.239 239.463L233.691 249.764C234.54 252.424 237.03 254.235 239.86 254.235C240.539 254.235 241.218 254.121 241.898 253.895L244.784 252.933C248.236 251.801 250.104 248.122 248.972 244.726L245.576 234.426C244.671 231.766 242.181 229.955 239.351 229.955C238.672 229.955 237.992 230.068 237.313 230.294Z" fill="#0F5756"/>
<path d="M150.322 338.45C146.7 338.45 146.7 344.053 150.322 344.053C153.888 344.053 153.944 338.45 150.322 338.45Z" fill="#E8F0F8"/>
<path d="M266.006 462.397C262.384 462.397 262.384 468 266.006 468C269.628 468 269.628 462.397 266.006 462.397Z" fill="#E8F0F8"/>
<path d="M401.158 325.716C397.536 325.716 397.536 331.375 401.158 331.375C404.78 331.375 404.78 325.716 401.158 325.716Z" fill="#E8F0F8"/>
<path d="M486.279 204.769C482.657 204.769 482.657 210.372 486.279 210.372C489.901 210.372 489.901 204.769 486.279 204.769Z" fill="#E8F0F8"/>
<path d="M54.7284 256.272C51.1062 256.272 51.1062 261.932 54.7284 261.932C58.3505 261.932 58.3505 256.272 54.7284 256.272Z" fill="#E8F0F8"/>
<path d="M9.16845 236.52C4.13135 236.52 4.13135 244.386 9.16845 244.386C14.2621 244.386 14.2621 236.52 9.16845 236.52Z" fill="#E8F0F8"/>
<path d="M463.922 296.229C458.828 296.229 458.828 304.096 463.922 304.096C468.959 304.096 468.959 296.229 463.922 296.229Z" fill="#E8F0F8"/>
<path d="M405.006 387.01L406.025 381.067L407.044 387.01C407.383 388.878 408.855 390.293 410.722 390.632L416.665 391.594L410.722 392.67C408.855 393.009 407.44 394.481 407.1 396.292L406.138 402.291L405.063 396.348C404.723 394.481 403.252 393.009 401.441 392.726L395.441 391.708L401.384 390.689C403.252 390.349 404.723 388.878 405.006 387.01Z" fill="#E6BC7A"/>
<path d="M88.4619 321.415L89.3674 315.868L90.3296 321.415C90.6692 323.113 91.9709 324.471 93.7254 324.754L99.2152 325.659L93.7254 326.622C92.0275 326.961 90.6692 328.263 90.3862 330.017L89.4806 335.507L88.5185 330.017C88.1789 328.319 86.8206 326.961 85.1227 326.678L79.6328 325.773L85.1227 324.81C86.8206 324.471 88.1789 323.113 88.4619 321.415Z" fill="#E6BC7A"/>
<path style="mix-blend-mode:multiply" opacity="0.4" fill-rule="evenodd" clip-rule="evenodd" d="M77.8774 130.401C79.2357 131.873 80.4242 133.457 81.3298 135.155L89.0269 133.231L91.687 143.815L84.0464 145.739C83.9898 147.72 83.7068 149.644 83.1975 151.568L89.9325 155.587L84.3294 164.982L77.5378 160.963C76.1229 162.322 74.5382 163.51 72.8403 164.472L74.7646 172.113L64.181 174.773L62.2567 167.132C60.2758 167.132 58.3516 166.849 56.4273 166.283L52.3523 173.075L42.9573 167.415L47.0322 160.68C45.6173 159.265 44.4854 157.681 43.5232 155.926L35.8827 157.907L33.2227 147.267L40.8632 145.343C40.8632 143.418 41.1462 141.437 41.7121 139.513L34.9206 135.495L40.5236 126.1L47.3152 130.118C48.7301 128.76 50.3148 127.571 52.0127 126.609L50.0884 118.969L60.7286 116.309L62.6529 123.949C64.5772 123.949 66.5581 124.232 68.4824 124.798L72.5007 118.006L81.8957 123.666L77.8774 130.401ZM55.1821 141.155C52.7485 145.173 54.0502 150.38 58.1252 152.813C62.1435 155.247 67.3504 153.889 69.7841 149.87C72.2177 145.852 70.8594 140.589 66.8411 138.211C62.8227 135.778 57.5592 137.08 55.1821 141.155Z" fill="url(#paint0_linear_613_523)"/>
<path style="mix-blend-mode:multiply" opacity="0.4" fill-rule="evenodd" clip-rule="evenodd" d="M392.103 37.8655C393.744 38.5447 395.272 39.4502 396.687 40.5256L402.347 36.1676L408.402 44.0911L402.686 48.4491C403.365 50.0338 403.818 51.7883 404.044 53.5428L411.119 54.5049L409.817 64.3527L402.743 63.3906C402.063 65.0319 401.158 66.6166 400.083 67.9749L404.384 73.6912L396.517 79.6904L392.159 73.9742C390.518 74.6533 388.82 75.1627 387.009 75.3325L386.103 82.4637L376.255 81.1053L377.218 74.0308C375.52 73.3516 373.992 72.4461 372.633 71.3707L366.917 75.6721L360.918 67.8051L366.577 63.4472C365.898 61.8625 365.445 60.108 365.219 58.3535L358.145 57.3913L359.446 47.5435L366.577 48.5057C367.257 46.8644 368.162 45.2797 369.237 43.9214L364.88 38.2051L372.803 32.2059L377.104 37.9221C378.746 37.243 380.444 36.7336 382.255 36.5638L383.217 29.4326L393.065 30.7909L392.103 37.8655ZM374.727 54.6181C373.992 60.0514 377.84 65.1451 383.273 65.8808C388.763 66.6166 393.8 62.768 394.536 57.2782C395.272 51.7883 391.423 46.7512 385.99 46.0154C380.5 45.2797 375.463 49.1282 374.727 54.6181Z" fill="url(#paint1_linear_613_523)"/>
<g style="mix-blend-mode:multiply" opacity="0.4">
<path d="M187.277 43.129V124.175C205.445 121.798 225.197 120.497 245.798 120.497C276.643 120.497 305.508 123.383 330.24 128.477V47.3737C305.508 42.3366 276.643 39.4502 245.798 39.4502C225.197 39.4502 205.445 40.7519 187.277 43.129Z" fill="url(#paint2_linear_613_523)"/>
</g>
<g style="mix-blend-mode:multiply" opacity="0.4">
<path d="M248.629 48.2227C231.254 48.3358 214.332 49.4112 198.145 51.3921C197.24 51.5053 196.617 52.241 196.617 53.1466C196.617 54.1653 197.523 54.9577 198.541 54.8445C214.615 52.8636 231.424 51.8448 248.629 51.7316C249.592 51.7316 250.327 50.9393 250.327 50.0337C250.327 50.0337 250.327 50.0149 250.327 49.9771C250.384 49.015 249.592 48.2227 248.629 48.2227Z" fill="url(#paint3_linear_613_523)"/>
<path d="M248.516 55.9199C231.254 56.0331 214.275 57.1085 198.145 59.0893C197.296 59.2025 196.617 59.9383 196.617 60.7872C196.617 60.825 196.617 60.8438 196.617 60.8438C196.617 61.8626 197.523 62.6549 198.541 62.5417C214.558 60.5608 231.368 59.5421 248.573 59.4289C249.535 59.4289 250.271 58.6932 250.271 57.731C250.271 57.731 250.271 57.7122 250.271 57.6744C250.271 56.7123 249.478 55.9199 248.516 55.9199Z" fill="url(#paint4_linear_613_523)"/>
<path d="M248.516 63.6738C231.198 63.7304 214.275 64.8057 198.145 66.7866C197.296 66.8998 196.617 67.6355 196.617 68.4845C196.617 68.5222 196.617 68.5411 196.617 68.5411C196.617 69.5598 197.523 70.3522 198.541 70.239C214.558 68.2581 231.368 67.2393 248.516 67.1262C249.478 67.1262 250.214 66.3338 250.214 65.4283C250.214 65.4283 250.214 65.4094 250.214 65.3717C250.214 64.4095 249.422 63.6172 248.516 63.6738Z" fill="url(#paint5_linear_613_523)"/>
<path d="M215.351 72.7852C209.54 73.238 203.805 73.8039 198.145 74.4831C197.296 74.5963 196.617 75.332 196.617 76.2376C196.617 77.2563 197.523 78.0487 198.541 77.9355C204.163 77.2563 209.861 76.6904 215.634 76.2376C216.483 76.181 217.218 75.4452 217.218 74.5397C217.218 74.5397 217.218 74.5208 217.218 74.4831C217.218 73.4644 216.369 72.672 215.351 72.7852Z" fill="url(#paint6_linear_613_523)"/>
</g>
<g style="mix-blend-mode:multiply" opacity="0.4">
<path d="M268.212 84.501C285.53 84.6142 302.509 85.6329 318.696 87.6138C319.545 87.727 320.224 88.4627 320.167 89.3683C320.167 89.3683 320.167 89.3872 320.167 89.4249C320.167 90.4436 319.318 91.236 318.3 91.0662C302.226 89.1419 285.36 88.0666 268.155 87.9534C267.249 87.9534 266.457 87.2176 266.457 86.2555C266.457 85.2933 267.249 84.501 268.212 84.501Z" fill="url(#paint7_linear_613_523)"/>
<path d="M268.266 92.1982C285.585 92.3114 302.507 93.3302 318.694 95.3676C319.543 95.4242 320.165 96.16 320.165 97.0655C320.165 98.1409 319.316 98.9332 318.298 98.7634C302.224 96.8392 285.415 95.7638 268.266 95.6506C267.304 95.6506 266.568 94.9149 266.512 93.9527C266.512 92.9906 267.304 92.1982 268.266 92.1982Z" fill="url(#paint8_linear_613_523)"/>
<path d="M268.325 99.8955C285.643 100.009 302.509 101.027 318.696 103.065C319.545 103.122 320.167 103.857 320.167 104.763C320.167 104.763 320.167 104.782 320.167 104.819C320.167 105.838 319.318 106.631 318.243 106.517C302.226 104.536 285.474 103.461 268.325 103.348C267.363 103.348 266.57 102.612 266.57 101.65C266.57 100.688 267.363 99.8955 268.325 99.8955Z" fill="url(#paint9_linear_613_523)"/>
<path d="M301.489 109.008C307.299 109.461 313.034 110.045 318.694 110.762C319.543 110.819 320.166 111.611 320.166 112.46C320.166 112.46 320.166 112.479 320.166 112.517C320.166 113.535 319.26 114.328 318.241 114.215C312.657 113.498 306.979 112.913 301.206 112.46C300.3 112.404 299.621 111.668 299.621 110.762C299.621 109.743 300.47 108.951 301.489 109.008Z" fill="url(#paint10_linear_613_523)"/>
</g>
<path style="mix-blend-mode:multiply" opacity="0.4" d="M350.617 97.9717V177.773C352.315 177.924 353.975 178.094 355.598 178.282C362.352 178.999 368.672 179.773 374.558 180.603C378.255 181.093 381.802 181.603 385.198 182.131C394.876 183.716 403.252 185.413 410.496 187.281C439.7 194.639 450.454 204.147 450.454 214.504V134.646C450.454 119.082 426.004 105.386 350.617 97.9717Z" fill="url(#paint11_linear_613_523)"/>
<path d="M362.105 114.385C362.105 115.63 363.068 116.706 364.313 116.819C429.455 123.441 450.679 135.496 450.679 149.192V144.212C450.679 130.572 429.569 118.573 364.822 111.951C363.351 111.782 362.105 112.914 362.105 114.385Z" fill="url(#paint12_linear_613_523)"/>
<path d="M362.105 124.346C362.105 125.591 363.068 126.667 364.313 126.78C429.455 133.402 450.679 145.457 450.679 159.153V154.172C450.679 140.533 429.569 128.534 364.822 121.912C363.351 121.743 362.105 122.875 362.105 124.346Z" fill="url(#paint13_linear_613_523)"/>
<path d="M362.105 134.307C362.105 135.552 363.068 136.627 364.313 136.741C429.455 143.362 450.679 155.418 450.679 169.114V164.133C450.679 150.494 429.569 138.495 364.822 131.873C363.351 131.704 362.105 132.835 362.105 134.307Z" fill="url(#paint14_linear_613_523)"/>
<path d="M362.105 144.268C362.105 145.513 363.068 146.588 364.313 146.702C429.455 153.323 450.679 165.378 450.679 179.075V174.094C450.679 160.455 429.569 148.456 364.822 141.834C363.351 141.664 362.105 142.796 362.105 144.268Z" fill="url(#paint15_linear_613_523)"/>
<path d="M362.105 154.229C362.105 155.474 363.068 156.55 364.313 156.663C429.455 163.285 450.679 175.34 450.679 189.036V184.056C450.679 170.416 429.569 158.418 364.822 151.796C363.351 151.626 362.105 152.758 362.105 154.229Z" fill="url(#paint16_linear_613_523)"/>
<path d="M411.176 171.944C411.176 170.359 412.647 169.227 414.175 169.623C440.889 176.189 450.68 184.735 450.68 194.017V198.997C450.68 189.546 440.606 180.886 413.043 174.264C411.968 174.038 411.232 173.076 411.176 172.001C411.176 171.963 411.176 171.944 411.176 171.944Z" fill="url(#paint17_linear_613_523)"/>
<path d="M428.945 158.53V238.331C442.642 231.483 450.678 223.163 450.678 214.221V134.42C450.678 143.362 442.642 151.625 428.945 158.53Z" fill="#24B7B4"/>
<path d="M342.975 51.1097C342.673 52.2416 342.296 53.4113 341.843 54.6187C337.655 65.5984 328.996 71.3147 319.657 72.673C302.282 75.3331 282.587 63.1648 284.85 42.1674C285.077 40.1299 285.53 38.1491 286.152 36.2814C288.812 28.5276 294.811 21.9058 302.395 18.793C306.301 17.1517 310.432 16.3594 314.45 16.3594C332.109 16.3594 348.408 30.6783 342.975 51.1097Z" fill="#0F5756"/>
<path d="M314.45 16.3594C314.375 16.5858 314.3 16.831 314.224 17.0951C313.601 19.5288 313.715 22.019 314.677 24.3961C315.582 26.4336 317.11 28.1315 318.299 29.9992C318.978 31.1311 319.94 32.829 319.035 34.0741C318.186 35.1495 316.148 36.1116 315.016 37.2435C311.79 40.6393 311.96 45.7896 314.677 49.4118C317.62 53.4302 322.997 54.3923 327.694 53.8829C332.222 53.3736 336.467 51.1663 341.051 50.9965C341.673 50.9399 342.353 50.9965 342.975 51.1097C348.408 30.6783 332.109 16.3594 314.45 16.3594ZM313.262 60.7877C311.79 59.9954 310.262 59.3162 308.791 58.5804C308.225 58.2975 307.885 58.1277 307.206 57.7315C306.942 57.5428 306.697 57.3542 306.47 57.1655C306.301 57.1089 305.904 56.7128 305.848 56.6562C304.999 55.8638 304.603 55.1281 304.659 53.7697C304.716 52.0718 305.452 50.4871 306.074 49.0156C307.432 45.6764 308.791 41.941 307.093 38.4321C305.452 34.9231 301.49 33.3384 297.754 33.3384C293.623 33.395 290.057 35.3758 286.152 36.2814C285.53 38.1491 285.077 40.1299 284.85 42.1674C282.587 63.1648 302.282 75.3331 319.657 72.673C319.827 71.2581 319.94 69.73 319.657 68.3151C318.922 64.8061 316.318 62.3724 313.262 60.7877Z" fill="#19918F"/>
<path d="M343.315 49.8081C343.201 50.2232 343.088 50.6571 342.975 51.1099C342.673 52.2418 342.296 53.4115 341.843 54.6189C337.655 65.5986 328.996 71.3149 319.657 72.6732C302.282 75.3332 282.587 63.165 284.85 42.1676C285.077 40.1301 285.53 38.1492 286.152 36.2816C286.888 34.2441 287.793 32.2632 288.982 30.3955C288.831 31.0747 288.718 31.7727 288.642 32.4896C286.379 53.4869 306.074 65.5986 323.449 62.9952C331.316 61.8066 338.674 57.6185 343.315 49.8081Z" fill="#3A6885"/>
<path d="M358.879 24.34C358.483 26.0945 357.351 27.566 356.275 28.9809C352.766 33.5652 348.578 37.4704 343.937 40.9228C339.41 44.3186 334.599 47.205 329.675 49.8651C318.356 55.8643 306.584 61.0146 294.472 65.2028C294.283 65.2782 294.076 65.3537 293.849 65.4291C291.133 66.3724 288.397 67.2591 285.643 68.0892C282.53 69.0513 279.191 70.4096 275.852 70.1832C273.022 69.9569 270.249 68.0326 269.683 65.0896C269.173 62.0899 271.154 59.5997 273.135 57.6188C276.757 53.9966 280.606 50.6574 284.737 47.7144C284.888 49.0727 285.096 50.3744 285.36 51.6196C281.851 54.5626 278.455 57.732 275.512 61.1844C274.437 62.4861 273.078 64.6368 275.399 65.4291C277.663 66.2781 280.606 64.8066 282.756 64.184C285.284 63.4294 287.794 62.6182 290.284 61.7504C293.227 60.7693 296.151 59.7129 299.056 58.5809C309.413 54.6192 319.657 50.0914 329.279 44.6016C334.033 41.9415 338.674 38.9419 342.862 35.4329C346.314 32.6031 349.484 29.4337 352.2 25.8115C352.823 25.0191 353.389 24.2268 353.785 23.2646C353.785 23.2646 353.766 23.2646 353.729 23.2646C353.502 23.2646 353.276 23.1515 352.88 23.0949C350.503 22.8685 347.56 23.5476 345.126 23.9438C342.409 24.3966 339.711 24.9814 337.033 25.6983C335.674 24.2268 334.146 22.9817 332.505 21.8497C337.655 20.0386 342.919 18.7935 348.408 18.171C351.295 17.8314 354.861 17.322 357.238 19.3595C358.709 20.548 359.275 22.5289 358.879 24.34Z" fill="#0F5756"/>
<path d="M320.449 6.85074C321.298 8.88822 323.675 10.3597 325.996 10.1899C328.373 10.0202 330.467 8.26565 330.75 6.11498C331.146 3.56814 328.429 -0.110642 325.43 0.00255079C321.751 0.172341 319.148 3.62473 320.449 6.85074Z" fill="#E47272"/>
<path d="M285.7 93.6134C288.53 95.764 292.718 95.9904 295.718 94.1227C303.076 89.6516 299.623 78.2757 291.417 77.6531C282.927 77.0306 279.022 88.5763 285.7 93.6134Z" fill="white"/>
<path d="M400.762 85.6898L422.042 92.538L417.401 70.5219L396.008 63.5605L400.762 85.6898Z" fill="#3A6885"/>
<path d="M422.043 92.5376L438.739 77.6527L433.985 55.5234L417.402 70.5215L422.043 92.5376Z" fill="#0F5756"/>
<path d="M396.008 63.5606L417.401 70.522L433.984 55.5239L412.591 48.5625L396.008 63.5606Z" fill="white"/>
<path d="M436.305 97.5185V73.6348" stroke="#0F5756" stroke-width="4" stroke-miterlimit="10"/>
<path d="M436.305 99.9521V103.405" stroke="#0F5756" stroke-width="4" stroke-miterlimit="10"/>
<path d="M430.59 92.7644V81.1055" stroke="#0F5756" stroke-width="4" stroke-miterlimit="10"/>
<path style="mix-blend-mode:multiply" opacity="0.4" d="M373.988 217.051V187.847C387.685 194.695 395.665 203.015 395.665 211.957V241.161C395.665 232.218 387.685 223.899 373.988 217.051Z" fill="url(#paint18_linear_613_523)"/>
<path d="M355.765 239.406C350.389 240.764 344.389 242.066 337.711 243.255C337.711 252.989 337.73 262.724 337.768 272.459C380.668 264.648 395.666 253.612 395.666 241.33V212.183C395.666 222.54 384.969 231.992 355.765 239.406Z" fill="#24B7B4"/>
<path style="mix-blend-mode:multiply" opacity="0.4" d="M380.271 202.336C380.271 202.336 380.271 202.354 380.271 202.392C380.271 203.185 380.667 203.864 381.346 204.316C390.515 210.259 395.665 217.051 395.665 224.238V218.522C395.665 212.07 391.477 205.901 383.949 200.411C382.421 199.279 380.214 200.411 380.271 202.336Z" fill="url(#paint19_linear_613_523)"/>
<path style="mix-blend-mode:multiply" opacity="0.4" d="M380.328 212.013C380.328 212.013 380.328 212.032 380.328 212.07C380.328 212.862 380.781 213.541 381.403 213.994C390.516 219.937 395.666 226.672 395.666 233.86V228.2C395.666 221.748 391.534 215.635 384.063 210.146C382.479 209.014 380.328 210.089 380.328 212.013Z" fill="url(#paint20_linear_613_523)"/>
<path d="M383.387 206.58C383.387 206.58 399.743 194.695 421.703 185.073L387.914 134.815L357.522 161.925C357.522 161.925 331.657 175.339 310.264 167.585L307.887 175.225L340.26 222.144C340.26 222.144 366.238 221.804 383.387 206.58Z" fill="#0F5756"/>
<path d="M355.994 159.322L380.897 203.41C380.897 203.41 361.597 219.371 341.336 215.182L311 165.264C338.619 171.32 338.902 150.266 355.994 159.322Z" fill="#F5F9FD"/>
<path d="M355.993 159.322C354.804 145.172 380.895 130.797 380.895 130.797L414.627 181.96C414.627 181.96 394.308 182.866 380.895 203.41L355.993 159.322Z" fill="#F5F9FD"/>
<path d="M355.992 159.322L380.895 203.411" stroke="#0F5756" stroke-width="2" stroke-miterlimit="10"/>
<path fill-rule="evenodd" clip-rule="evenodd" d="M337.429 176.131C335.882 176.885 334.335 177.64 332.788 178.394C331.996 178.734 331.26 179.13 330.468 179.47C329.845 179.753 329.053 180.092 328.374 179.923C327.694 179.753 327.242 179.243 326.902 178.621C326.506 177.942 326.11 177.206 325.77 176.47C325.053 175.112 324.355 173.754 323.676 172.395C323.167 172.169 323.054 171.377 323.506 171.037C323.676 170.754 324.016 170.641 324.355 170.697C327.298 169.792 330.298 169.056 333.184 167.868C333.467 167.754 333.807 167.981 333.977 168.207C335.392 170.358 336.58 172.678 337.769 174.942C337.995 175.338 337.882 175.961 337.429 176.131ZM335.731 174.999C334.769 173.188 333.75 171.32 332.958 169.452C330.354 170.131 327.864 171.15 325.317 171.999C325.883 173.056 326.43 174.112 326.959 175.168C327.298 175.81 327.638 176.451 327.977 177.093C328.147 177.432 328.43 178.338 328.883 178.451C329.109 178.451 329.506 178.225 329.732 178.112C330.034 177.923 330.354 177.734 330.694 177.546C331.335 177.244 331.977 176.923 332.618 176.583C333.675 176.055 334.712 175.527 335.731 174.999Z" fill="#CFE1EF"/>
<path d="M351.92 161.133C347.11 159.605 343.431 164.472 339.13 165.547C338.394 165.774 338.677 166.906 339.469 166.736C341.62 166.283 343.431 165.094 345.299 164.019C347.223 163 349.317 162.151 351.468 162.944C352.6 163.283 353.052 161.529 351.92 161.133Z" fill="#CFE1EF"/>
<path d="M353.334 165.774C352.372 165.66 351.296 165.83 350.278 165.943C349.259 166.094 348.259 166.358 347.278 166.736C345.354 167.415 343.599 168.49 342.071 169.905C341.335 170.528 342.354 171.547 343.09 170.924C344.505 169.735 346.146 168.83 347.901 168.321C348.75 168.038 349.655 167.811 350.504 167.698C351.466 167.585 352.428 167.698 353.334 167.698C353.9 167.698 354.353 167.245 354.353 166.736C354.353 166.17 353.9 165.83 353.334 165.774Z" fill="#CFE1EF"/>
<path d="M356.785 172.226C347.277 173.188 340.259 180.545 331.147 182.752C330.185 183.035 330.581 184.394 331.543 184.224C336.071 183.318 340.089 181.055 344.108 178.961C348.069 176.81 352.201 174.716 356.785 174.376C358.144 174.263 358.144 172.112 356.785 172.226Z" fill="#CFE1EF"/>
<path d="M342.864 183.545C342.072 183.715 341.393 184.111 340.713 184.45C340.072 184.714 339.431 184.96 338.789 185.186C337.431 185.582 336.016 185.922 334.601 186.092C334.148 186.148 333.809 186.431 333.809 186.884C333.809 187.28 334.148 187.676 334.601 187.62C336.186 187.582 337.733 187.337 339.242 186.884C339.997 186.658 340.732 186.394 341.449 186.092C342.241 185.752 342.977 185.413 343.543 184.79C344.109 184.281 343.543 183.375 342.864 183.545Z" fill="#CFE1EF"/>
<path fill-rule="evenodd" clip-rule="evenodd" d="M368.048 191.865C365.728 192.148 363.351 192.827 361.087 193.449C358.823 194.091 356.578 194.826 354.352 195.657C349.881 197.354 345.58 199.448 341.505 201.882C341.052 202.165 340.486 201.939 340.203 201.486C338.958 199.505 337.6 197.581 336.468 195.487C336.015 194.751 336.694 194.128 337.317 194.185C337.203 193.845 337.317 193.393 337.769 193.223C340.656 192.091 343.486 190.789 346.315 189.374C348.73 188.167 351.069 186.809 353.333 185.299C355.541 183.828 357.861 182.3 360.578 182.186C365.219 181.96 367.879 186.714 369.011 190.619C369.237 191.299 368.671 191.808 368.048 191.865ZM366.69 190.167C366.011 188.525 365.332 186.884 364.087 185.639C360.351 181.96 355.258 186.544 351.918 188.525C347.561 191.072 342.92 193.11 338.109 194.525C338.071 194.525 338.052 194.525 338.052 194.525C338.09 194.562 338.109 194.581 338.109 194.581C339.297 196.222 340.316 197.977 341.391 199.731C345.353 197.468 349.485 195.487 353.73 193.902C355.993 193.034 358.295 192.28 360.634 191.638C362.615 191.072 364.653 190.619 366.69 190.167Z" fill="#CFE1EF"/>
<path d="M367.708 193.676C365.614 194.242 363.633 195.147 361.596 195.883C359.596 196.638 357.577 197.373 355.54 198.09C351.465 199.6 347.428 201.128 343.428 202.675C342.466 203.014 342.862 204.599 343.824 204.259C347.937 202.826 352.05 201.354 356.163 199.845C358.2 199.128 360.219 198.392 362.218 197.638C364.256 196.902 366.407 196.279 368.387 195.374C369.35 194.921 368.67 193.393 367.708 193.676Z" fill="#CFE1EF"/>
<path d="M355.824 203.014C355.314 202.958 354.861 203.241 354.409 203.467C354.031 203.656 353.654 203.825 353.277 203.976C352.56 204.316 351.805 204.637 351.013 204.938C349.39 205.504 347.73 205.938 346.032 206.24C345.58 206.297 345.353 206.863 345.466 207.259C345.58 207.768 346.032 207.938 346.485 207.881C348.258 207.617 349.994 207.221 351.692 206.693C352.522 206.429 353.352 206.108 354.182 205.731C354.975 205.448 356.163 205.108 356.616 204.316C356.955 203.693 356.446 203.071 355.824 203.014Z" fill="#CFE1EF"/>
<path d="M377.388 139.965C376.426 140.022 375.351 140.701 374.502 141.154C373.634 141.607 372.785 142.097 371.955 142.625C370.201 143.757 368.559 145.059 367.031 146.474C364.032 149.247 361.541 152.643 359.73 156.322C359.334 157.227 360.636 157.963 361.089 157.114C362.9 153.605 365.333 150.492 368.22 147.776C369.654 146.455 371.201 145.267 372.861 144.21C373.653 143.72 374.464 143.267 375.294 142.852C376.143 142.399 377.332 142.059 378.011 141.437C378.52 140.927 378.124 139.965 377.388 139.965Z" fill="#CFE1EF"/>
<path d="M368.502 152.813C368.333 152.587 367.993 152.53 367.71 152.7C367.144 153.096 366.691 153.605 366.182 154.171C365.729 154.737 365.276 155.303 364.824 155.869C363.918 156.963 363.031 158.076 362.164 159.208C361.881 159.491 361.824 159.944 362.164 160.284C362.39 160.51 362.956 160.567 363.182 160.284C364.126 159.19 365.069 158.095 366.012 157.001C366.465 156.473 366.918 155.945 367.37 155.416C367.823 154.85 368.333 154.284 368.616 153.605C368.785 153.322 368.729 152.983 368.502 152.813Z" fill="#CFE1EF"/>
<path fill-rule="evenodd" clip-rule="evenodd" d="M390.972 157.001C384.011 160.85 377.446 165.377 371.39 170.471C371.05 170.811 370.371 170.924 370.031 170.471C368.39 168.377 366.522 166.283 365.108 164.076C364.655 163.34 365.334 162.604 366.013 162.604C366.013 162.566 366.032 162.51 366.07 162.434C367.598 160.114 369.692 158.076 371.843 156.265C373.937 154.511 376.201 152.869 378.578 151.568C380.955 150.266 383.728 149.134 386.388 150.266C388.708 151.285 390.123 153.605 391.312 155.699C391.538 156.152 391.425 156.775 390.972 157.001ZM370.88 168.433C376.597 163.679 382.709 159.435 389.218 155.812C388.312 154.228 387.237 152.53 385.482 151.907C383.105 150.945 380.445 152.586 378.464 153.718C376.314 154.963 374.314 156.397 372.465 158.02C370.541 159.661 368.9 161.472 367.145 163.283C367.107 163.321 367.051 163.359 366.975 163.396C368.39 164.981 369.635 166.736 370.88 168.433Z" fill="#CFE1EF"/>
<path d="M393.008 159.491C392.386 159.152 391.82 159.491 391.197 159.774C390.669 160.001 390.141 160.246 389.613 160.51C388.556 161.038 387.518 161.661 386.5 162.378C384.538 163.736 382.802 165.358 381.293 167.245C380.727 167.981 381.689 168.999 382.312 168.264C383.783 166.622 385.481 165.094 387.349 163.849C388.292 163.208 389.254 162.642 390.235 162.151C390.763 161.887 391.273 161.642 391.763 161.416C392.329 161.189 393.065 161.076 393.291 160.51C393.461 160.17 393.461 159.661 393.008 159.491Z" fill="#CFE1EF"/>
<path d="M395.612 163.453C395.386 163.17 395.103 163.114 394.763 163.17C394.537 163.17 394.311 163.396 394.084 163.51C393.896 163.623 393.726 163.717 393.575 163.793C393.235 164.019 392.896 164.245 392.556 164.472C391.877 164.925 391.198 165.377 390.519 165.83C390.236 166.057 390.066 166.396 390.236 166.736C390.462 167.075 390.858 167.188 391.198 167.019C391.934 166.623 392.669 166.226 393.349 165.774C393.726 165.585 394.084 165.377 394.424 165.151C394.613 165.076 394.782 164.981 394.933 164.868C395.046 164.83 395.141 164.774 395.216 164.698C395.443 164.585 395.556 164.472 395.669 164.302C395.839 164.076 395.782 163.679 395.612 163.453Z" fill="#CFE1EF"/>
<path d="M397.081 168.434C396.119 168.434 395.101 169 394.195 169.396C393.327 169.773 392.459 170.169 391.592 170.584C389.78 171.49 388.045 172.528 386.385 173.697C383.045 175.961 380.102 178.678 377.499 181.79C376.876 182.47 377.895 183.545 378.518 182.809C381.121 179.923 384.008 177.376 387.234 175.225C388.818 174.131 390.46 173.169 392.157 172.339C392.988 171.886 393.855 171.49 394.761 171.15C395.61 170.754 396.742 170.528 397.478 169.962C398.1 169.509 397.987 168.377 397.081 168.434Z" fill="#CFE1EF"/>
<path fill-rule="evenodd" clip-rule="evenodd" d="M380.329 175.339C379.48 176.697 377.895 177.546 376.254 177.319C374.612 177.15 373.197 176.074 372.688 174.49C372.462 174.32 372.348 174.093 372.405 173.81C372.801 171.943 373.877 170.188 375.744 169.509C377.272 169 378.97 169.452 379.989 170.754C381.064 172.056 381.234 173.867 380.329 175.339ZM378.914 173.075C378.914 173.018 378.914 172.961 378.914 172.961C378.914 172.905 378.914 172.735 378.914 172.792C378.876 172.641 378.838 172.49 378.8 172.339C378.763 172.263 378.725 172.207 378.687 172.169C378.612 172.056 378.536 171.943 378.461 171.83C378.461 171.773 378.461 171.773 378.404 171.773C378.367 171.735 378.329 171.679 378.291 171.603C378.065 171.377 378.065 171.377 377.782 171.207C377.612 171.15 377.669 171.15 377.499 171.094C377.442 171.094 377.272 171.037 377.216 171.037C376.706 170.981 376.14 171.094 375.688 171.377C374.895 171.773 374.386 172.509 374.046 173.301C374.16 173.339 374.254 173.433 374.329 173.584C374.367 173.735 374.443 173.867 374.556 173.98L374.612 174.093C374.688 174.169 374.744 174.225 374.782 174.263C374.895 174.376 375.008 174.49 375.122 174.603C375.122 174.603 375.178 174.659 375.235 174.716C375.291 174.716 375.291 174.773 375.291 174.773C375.442 174.848 375.574 174.924 375.688 174.999C375.763 175.037 375.839 175.074 375.914 175.112C375.952 175.112 375.971 175.112 375.971 175.112C376.122 175.15 376.272 175.188 376.423 175.225C376.461 175.225 376.48 175.225 376.48 175.225C376.48 175.225 376.499 175.225 376.537 175.225C376.574 175.225 376.631 175.225 376.706 175.225C376.82 175.225 376.914 175.225 376.989 175.225C376.989 175.225 377.008 175.225 377.046 175.225C377.159 175.188 377.272 175.15 377.386 175.112C377.386 175.112 377.442 175.112 377.499 175.112C377.555 175.112 377.555 175.056 377.612 175.056C377.725 175.018 377.819 174.961 377.895 174.886C377.952 174.886 378.065 174.773 378.065 174.773C378.121 174.716 378.121 174.716 378.178 174.716C378.253 174.603 378.329 174.508 378.404 174.433C378.461 174.433 378.461 174.376 378.517 174.376C378.517 174.32 378.574 174.263 378.574 174.263C378.65 174.15 378.725 174.037 378.8 173.924C378.8 173.886 378.8 173.867 378.8 173.867C378.8 173.867 378.8 173.848 378.8 173.81C378.838 173.773 378.857 173.716 378.857 173.641C378.895 173.603 378.914 173.546 378.914 173.471C378.914 173.471 378.914 173.414 378.914 173.358C378.914 173.301 378.914 173.244 378.914 173.244C378.951 173.169 378.951 173.112 378.914 173.075Z" fill="#CFE1EF"/>
<path d="M385.708 180.942C385.482 180.659 384.972 180.489 384.633 180.715C383.048 181.904 381.633 183.262 380.161 184.62C379.878 184.903 379.878 185.469 380.161 185.752C380.501 186.035 380.954 186.035 381.293 185.752C382.048 185.149 382.784 184.545 383.501 183.941C384.236 183.319 384.972 182.753 385.651 182.074C385.934 181.791 385.991 181.281 385.708 180.942Z" fill="#CFE1EF"/>
<path d="M401.95 175.452C400.082 176.074 398.327 176.98 396.629 177.885C394.856 178.829 393.139 179.866 391.479 180.998C388.253 183.206 385.254 185.866 382.65 188.752C381.971 189.488 383.046 190.563 383.725 189.827C386.385 187.111 389.328 184.677 392.554 182.526C394.101 181.508 395.705 180.564 397.365 179.697C399.063 178.791 400.874 178.112 402.685 177.319C403.704 176.81 402.968 175.112 401.95 175.452Z" fill="#CFE1EF"/>
<path style="mix-blend-mode:multiply" opacity="0.4" d="M174.715 63.7871V143.588C173.017 143.777 171.357 143.966 169.735 144.154C163.019 144.833 156.699 145.588 150.775 146.418C147.077 146.909 143.531 147.437 140.135 148.003C130.513 149.531 122.08 151.229 114.836 153.097C85.6323 160.454 74.8789 169.962 74.8789 180.32V100.518C74.8789 84.8976 99.3287 71.2013 174.715 63.7871Z" fill="url(#paint21_linear_613_523)"/>
<path d="M163.453 80.71C163.453 81.9551 162.49 82.9738 161.245 83.1436C96.1026 89.7654 74.8789 101.764 74.8789 115.46V110.536C74.8789 96.84 95.9894 84.8981 160.736 78.2197C162.207 78.1065 163.453 79.2385 163.453 80.71Z" fill="url(#paint22_linear_613_523)"/>
<path d="M163.453 90.6709C163.453 91.916 162.49 92.9348 161.245 93.1046C96.1026 99.7264 74.8789 111.725 74.8789 125.421V120.497C74.8789 106.801 95.9894 94.8591 160.736 88.1807C162.207 88.0675 163.453 89.1994 163.453 90.6709Z" fill="url(#paint23_linear_613_523)"/>
<path d="M163.453 100.632C163.453 101.877 162.49 102.896 161.245 103.065C96.1026 109.687 74.8789 121.686 74.8789 135.382V130.458C74.8789 116.762 95.9894 104.82 160.736 98.1416C162.207 98.0284 163.453 99.1603 163.453 100.632Z" fill="url(#paint24_linear_613_523)"/>
<path d="M163.453 110.593C163.453 111.838 162.49 112.857 161.245 113.026C96.1026 119.648 74.8789 131.647 74.8789 145.343V140.419C74.8789 126.723 95.9894 114.781 160.736 108.103C162.207 107.989 163.453 109.121 163.453 110.593Z" fill="url(#paint25_linear_613_523)"/>
<path d="M163.453 120.554C163.453 121.799 162.49 122.818 161.245 122.987C96.1026 129.609 74.8789 141.608 74.8789 155.304V150.38C74.8789 136.684 95.9894 124.742 160.736 118.063C162.207 117.95 163.453 119.082 163.453 120.554Z" fill="url(#paint26_linear_613_523)"/>
<path d="M114.383 138.212C114.383 136.684 112.912 135.552 111.384 135.892C84.6701 142.513 74.8789 151.003 74.8789 160.341V165.265C74.8789 155.814 84.9531 147.211 112.516 140.589C113.591 140.306 114.327 139.401 114.383 138.269C114.383 138.269 114.383 138.25 114.383 138.212Z" fill="url(#paint27_linear_613_523)"/>
<path d="M96.612 124.799V204.6C82.9156 197.752 74.8789 189.489 74.8789 180.49V100.688C74.8789 109.631 82.9156 117.95 96.612 124.799Z" fill="#24B7B4"/>
<path d="M241.048 117.836C243.029 124.515 239.237 131.533 232.615 133.57C225.937 135.551 218.919 131.759 216.881 125.081C214.9 118.402 218.692 111.384 225.314 109.403C231.992 107.366 239.01 111.158 241.048 117.836Z" fill="#345870"/>
<path d="M213.767 126.042C215.804 132.721 212.012 139.739 205.334 141.72C198.655 143.757 191.637 139.965 189.656 133.287C187.619 126.608 191.411 119.59 198.089 117.61C204.768 115.572 211.786 119.364 213.767 126.042Z" fill="#345870"/>
<path d="M240.821 87.1047L174.15 107.14C166.793 109.347 162.605 117.101 164.812 124.458L166.906 131.307C169.226 139.004 177.263 143.362 184.96 141.041L250.499 121.346C258.196 119.025 262.498 110.989 260.234 103.291L258.14 96.4432C255.932 89.0856 248.179 84.8975 240.821 87.1047Z" fill="#345870"/>
<path d="M239.858 81.8974L172.112 102.216C165.038 104.366 161.019 111.837 163.17 118.855L165.094 125.364C167.245 132.382 174.659 136.4 181.734 134.306L249.48 113.931C256.554 111.837 260.573 104.366 258.422 97.2917L256.498 90.8397C254.347 83.7651 246.933 79.7467 239.858 81.8974Z" fill="#19918F"/>
<path d="M210.314 123.439C211.786 128.307 209.012 133.513 204.088 134.985C199.221 136.456 194.014 133.627 192.543 128.759C191.071 123.835 193.844 118.685 198.768 117.214C203.692 115.742 208.843 118.515 210.314 123.439Z" fill="#0F5756"/>
<path d="M235.724 115.799C237.196 120.666 234.422 125.873 229.499 127.344C224.631 128.816 219.424 126.043 217.953 121.119C216.481 116.195 219.255 111.044 224.178 109.573C229.102 108.101 234.253 110.875 235.724 115.799Z" fill="#0F5756"/>
<path d="M232.557 116.308C233.463 119.421 231.708 122.703 228.596 123.609C225.483 124.571 222.2 122.817 221.238 119.647C220.333 116.534 222.087 113.252 225.2 112.346C228.313 111.384 231.595 113.139 232.557 116.308Z" fill="white"/>
<path d="M207.202 123.892C208.164 127.005 206.353 130.288 203.24 131.25C200.128 132.155 196.845 130.401 195.939 127.288C194.977 124.175 196.732 120.893 199.845 119.93C203.014 119.025 206.297 120.779 207.202 123.892Z" fill="white"/>
<path d="M192.884 119.138C191.866 126.213 185.357 131.08 178.283 130.061C171.265 129.042 166.397 122.477 167.416 115.459C168.435 108.385 175 103.517 182.018 104.536C189.036 105.555 193.96 112.12 192.884 119.138Z" fill="#0F5756"/>
<path d="M254.345 100.688C253.327 107.762 246.818 112.63 239.744 111.611C232.726 110.536 227.858 104.027 228.877 96.9525C229.896 89.9345 236.404 85.0672 243.479 86.0859C250.497 87.1047 255.421 93.6699 254.345 100.688Z" fill="#0F5756"/>
<path d="M223.498 107.762L199.445 114.95C197.747 115.459 195.992 114.497 195.483 112.856L191.352 99.046C190.842 97.4047 191.804 95.5936 193.446 95.0842L217.499 87.8964C219.197 87.3871 220.952 88.3492 221.461 89.9905L225.592 103.8C226.102 105.498 225.14 107.252 223.498 107.762Z" fill="#345870"/>
<path d="M222.481 105.385L198.937 112.46C197.126 112.969 195.202 111.95 194.636 110.139L190.787 97.2918C190.278 95.4807 191.297 93.5564 193.108 92.9905L216.652 85.9725C218.463 85.4065 220.387 86.4252 220.953 88.2929L224.802 101.084C225.311 102.895 224.292 104.819 222.481 105.385Z" fill="#0F5756"/>
<path d="M217.616 90.5004L220.502 100.235C220.898 101.537 220.162 102.895 218.861 103.291L201.089 108.611C200.637 108.781 200.24 108.781 199.844 108.668C198.995 108.498 198.26 107.876 198.033 106.97L195.09 97.292C194.864 96.5562 195.317 95.7638 195.996 95.5375L215.861 89.5948C216.597 89.3684 217.389 89.7646 217.616 90.5004Z" fill="#D9DADE"/>
<path d="M214.16 90.1045L210.029 105.952L201.539 108.498L205.614 92.6513L214.16 90.1045Z" fill="white"/>
<path d="M203.862 93.2168L199.843 108.668C198.994 108.498 198.259 107.875 198.032 106.97L196.844 103.065L198.994 94.6883L203.862 93.2168Z" fill="white"/>
<path d="M217.898 91.5752L219.313 96.2161L217.332 103.743L214.559 104.592L217.898 91.5752Z" fill="white"/>
<path d="M208.957 115.12C209.127 115.629 208.844 116.082 208.391 116.252C207.882 116.365 207.429 116.138 207.259 115.629C207.146 115.176 207.372 114.667 207.882 114.554C208.334 114.384 208.844 114.667 208.957 115.12Z" fill="url(#paint28_linear_613_523)"/>
<path d="M211.164 117.101C211.334 117.554 211.051 118.063 210.598 118.233C210.089 118.346 209.636 118.063 209.466 117.611C209.353 117.158 209.579 116.648 210.089 116.535C210.541 116.365 211.051 116.648 211.164 117.101Z" fill="url(#paint29_linear_613_523)"/>
<path d="M211.955 114.271C212.068 114.724 211.842 115.233 211.332 115.347C210.879 115.516 210.37 115.233 210.257 114.781C210.087 114.271 210.37 113.818 210.823 113.649C211.276 113.535 211.785 113.762 211.955 114.271Z" fill="url(#paint30_linear_613_523)"/>
<path d="M214.166 116.196C214.279 116.649 214.052 117.158 213.543 117.328C213.09 117.441 212.581 117.215 212.468 116.705C212.298 116.252 212.581 115.743 213.034 115.63C213.543 115.46 213.996 115.743 214.166 116.196Z" fill="url(#paint31_linear_613_523)"/>
<path d="M214.899 113.366C215.068 113.819 214.785 114.328 214.333 114.441C213.88 114.611 213.371 114.328 213.201 113.875C213.088 113.366 213.371 112.913 213.823 112.743C214.276 112.63 214.785 112.857 214.899 113.366Z" fill="url(#paint32_linear_613_523)"/>
<path d="M217.106 115.29C217.275 115.799 216.992 116.252 216.54 116.422C216.087 116.535 215.578 116.308 215.408 115.799C215.295 115.346 215.578 114.837 216.03 114.724C216.483 114.554 216.992 114.837 217.106 115.29Z" fill="url(#paint33_linear_613_523)"/>
<path d="M217.9 112.46C218.013 112.913 217.787 113.422 217.277 113.535C216.825 113.705 216.315 113.422 216.202 112.969C216.032 112.517 216.315 112.007 216.768 111.837C217.277 111.724 217.787 112.007 217.9 112.46Z" fill="url(#paint34_linear_613_523)"/>
<path d="M181.113 112.63L179.868 114.158C179.699 114.328 179.416 114.441 179.133 114.328L177.265 113.762C176.982 113.649 176.756 113.422 176.642 113.083L175.85 110.366C175.68 109.857 175.907 109.347 176.303 109.234L179.416 108.272C179.812 108.159 180.265 108.442 180.434 108.951L181.227 111.668C181.34 112.007 181.283 112.403 181.113 112.63Z" fill="white"/>
<path d="M179.359 120.667L180.604 119.138C180.774 118.912 181.057 118.855 181.283 118.912L183.151 119.535C183.434 119.591 183.717 119.874 183.774 120.214L184.623 122.93C184.792 123.44 184.566 123.949 184.17 124.062L181 124.968C180.604 125.138 180.152 124.798 180.038 124.289L179.189 121.572C179.076 121.232 179.133 120.893 179.359 120.667Z" fill="white"/>
<path d="M175.735 116.422L177.207 117.441C177.377 117.611 177.433 117.837 177.377 118.063L176.697 119.705C176.641 119.931 176.358 120.157 176.018 120.271L173.302 121.063C172.792 121.233 172.283 121.063 172.17 120.723L171.377 118.063C171.264 117.724 171.604 117.328 172.113 117.158L174.83 116.365C175.169 116.252 175.509 116.309 175.735 116.422Z" fill="white"/>
<path d="M184.846 117.271L183.375 116.252C183.148 116.082 183.092 115.856 183.205 115.63L183.828 113.988C183.941 113.762 184.224 113.536 184.563 113.422L187.28 112.63C187.789 112.46 188.299 112.63 188.355 112.97L189.148 115.63C189.261 115.969 188.978 116.365 188.469 116.535L185.695 117.328C185.412 117.441 185.016 117.384 184.846 117.271Z" fill="white"/>
<path d="M188.467 104.537C187.561 104.82 186.599 104.31 186.316 103.405L185.977 102.273C185.694 101.367 186.203 100.462 187.109 100.179C188.014 99.8958 188.976 100.405 189.259 101.311L189.599 102.443C189.882 103.348 189.372 104.254 188.467 104.537Z" fill="#210042"/>
<path d="M189.259 101.311C189.542 102.216 189.033 103.178 188.127 103.461C187.222 103.688 186.26 103.178 185.977 102.273C185.694 101.367 186.203 100.462 187.109 100.179C188.014 99.8958 188.976 100.405 189.259 101.311Z" fill="white"/>
<path d="M227.461 92.8209C226.556 93.1039 225.65 92.5945 225.367 91.689L225.027 90.5571C224.744 89.6515 225.254 88.6894 226.159 88.463C227.065 88.18 228.027 88.6894 228.31 89.5949L228.65 90.6703C228.876 91.5758 228.367 92.5379 227.461 92.8209Z" fill="#210042"/>
<path d="M228.31 89.5949C228.536 90.5005 228.027 91.4626 227.122 91.689C226.216 91.972 225.31 91.4626 225.027 90.5571C224.744 89.6515 225.254 88.6894 226.159 88.463C227.065 88.18 228.027 88.6894 228.31 89.5949Z" fill="white"/>
<path d="M242.63 91.4058C243.139 93.0471 242.177 94.8016 240.536 95.2544C238.895 95.7638 237.197 94.8582 236.687 93.2169C236.178 91.5756 237.14 89.8211 238.782 89.3683C240.423 88.859 242.121 89.7645 242.63 91.4058Z" fill="white"/>
<path d="M246.535 104.48C247.045 106.121 246.083 107.819 244.441 108.328C242.8 108.781 241.102 107.876 240.593 106.234C240.14 104.593 241.046 102.895 242.687 102.386C244.328 101.876 246.026 102.838 246.535 104.48Z" fill="white"/>
<path d="M238.047 99.8959C238.557 101.537 237.651 103.292 236.01 103.744C234.369 104.254 232.614 103.292 232.161 101.707C231.652 100.066 232.557 98.3112 234.199 97.8018C235.84 97.349 237.595 98.2546 238.047 99.8959Z" fill="white"/>
<path d="M251.122 95.9906C251.575 97.6319 250.67 99.3298 249.028 99.8392C247.387 100.349 245.689 99.3864 245.18 97.7451C244.67 96.1038 245.632 94.4059 247.274 93.8965C248.858 93.4438 250.613 94.3493 251.122 95.9906Z" fill="white"/>
<path d="M236.463 101.536L234.369 102.159L233.746 100.065L235.84 99.4424L236.463 101.536Z" fill="#19918F"/>
<path d="M241.047 93.0472L238.896 93.6698L238.273 91.5757L240.424 90.9531L241.047 93.0472Z" fill="#E47272"/>
<path d="M244.951 106.178L242.857 106.801L242.234 104.707L244.328 104.027L244.951 106.178Z" fill="#E05C5C"/>
<path d="M249.535 97.6878L247.441 98.3104L246.762 96.2163L248.912 95.5938L249.535 97.6878Z" fill="#0F5756"/>
<path d="M254.177 95.8772C252.592 91.5758 248.744 88.2366 243.933 87.5575C236.858 86.5387 230.35 91.406 229.331 98.424C229.048 100.122 229.161 101.707 229.501 103.235C228.822 101.31 228.539 99.1598 228.878 96.9525C229.897 89.9345 236.462 85.0672 243.48 86.0859C248.857 86.8783 252.988 90.8967 254.177 95.8772Z" fill="#345870"/>
<path d="M192.712 114.327C191.127 110.026 187.279 106.743 182.468 106.008C175.394 104.989 168.885 109.856 167.866 116.931C167.583 118.572 167.696 120.157 168.036 121.741C167.357 119.761 167.074 117.61 167.413 115.459C168.432 108.385 174.997 103.517 182.015 104.536C187.392 105.328 191.524 109.347 192.712 114.327Z" fill="#345870"/>
<path d="M204.258 192.658V245.349C204.258 248.575 202.163 251.631 199.56 252.197L118.683 269.516C114.439 270.421 110.93 267.761 110.93 263.517V194.752C110.93 190.507 114.439 187.054 118.683 187.054L199.56 186.771C202.163 186.771 204.258 189.375 204.258 192.658Z" fill="#F5F9FD"/>
<path d="M204.258 192.658V193.337L110.93 195.714V194.752C110.93 190.507 114.439 187.054 118.683 187.054L199.56 186.771C202.163 186.771 204.258 189.375 204.258 192.658Z" fill="#19918F"/>
<path d="M123.153 191.243C123.153 192.488 122.134 193.507 120.889 193.507C119.644 193.563 118.625 192.545 118.625 191.299C118.625 189.998 119.644 188.979 120.889 188.979C122.134 188.979 123.153 189.941 123.153 191.243Z" fill="white"/>
<path d="M130.905 191.13C130.905 192.318 129.943 193.337 128.754 193.337C127.566 193.393 126.547 192.431 126.547 191.186C126.547 189.941 127.566 188.922 128.754 188.922C129.943 188.922 130.905 189.885 130.905 191.13Z" fill="white"/>
<path d="M138.376 191.016C138.376 192.205 137.47 193.167 136.282 193.224C135.15 193.224 134.188 192.261 134.188 191.073C134.188 189.828 135.15 188.866 136.282 188.866C137.47 188.809 138.376 189.771 138.376 191.016Z" fill="white"/>
<path d="M158.47 211.787L172.789 219.315C174.147 220.05 174.147 222.258 172.789 223.22L158.47 233.803C157.055 234.822 155.301 233.973 155.301 232.162V214.051C155.301 212.297 157.055 211.052 158.47 211.787Z" fill="#E47272"/>
<path d="M199.22 252.311L119.249 269.403C114.722 270.365 110.93 267.478 110.93 262.951V257.121L204.258 240.425V244.896C204.258 248.405 202.05 251.688 199.22 252.311Z" fill="#19918F"/>
<path d="M172.28 252.82C172.28 252.179 172.261 251.537 172.224 250.896L129.55 259.272C128.927 259.385 128.475 260.008 128.588 260.687C128.701 261.253 129.21 261.649 129.776 261.649C129.852 261.649 129.927 261.63 130.003 261.593L172.224 253.33C172.224 253.141 172.243 252.971 172.28 252.82Z" fill="#E47272"/>
<path d="M199.503 245.519L173.809 250.556C173.922 251.235 173.997 251.896 174.035 252.537C174.035 252.688 174.054 252.82 174.092 252.933L199.956 247.84C200.635 247.726 201.032 247.104 200.918 246.481C200.805 245.802 200.183 245.406 199.503 245.519Z" fill="#FFFFFD"/>
<path d="M118.231 263.913C117.665 263.913 117.156 263.517 117.043 262.951C116.929 262.272 117.326 261.649 118.005 261.536L139.398 257.348C140.077 257.178 140.7 257.631 140.813 258.254C140.926 258.933 140.53 259.555 139.851 259.668L118.458 263.857C118.382 263.894 118.307 263.913 118.231 263.913Z" fill="#E47272"/>
<path d="M176.128 251.292C176.128 253.669 174.317 255.933 172.053 256.386C169.79 256.838 167.922 255.31 167.922 252.933C167.922 250.5 169.79 248.236 172.053 247.783C174.317 247.387 176.128 248.971 176.128 251.292Z" fill="#E47272"/>
<path d="M174.034 251.688C174.034 252.876 173.185 254.008 172.053 254.235C170.921 254.461 170.016 253.669 170.016 252.48C170.016 251.348 170.921 250.216 172.053 249.99C173.185 249.764 174.034 250.556 174.034 251.688Z" fill="#FFFFFD"/>
<path style="mix-blend-mode:multiply" opacity="0.4" d="M81.9532 236.067C81.9532 236.105 81.9532 236.142 81.9532 236.18L82.8588 266.403C82.5758 257.291 97.2909 248.575 121.514 241.726L120.609 211.447C96.3854 218.295 81.6702 227.011 81.9532 236.067Z" fill="url(#paint35_linear_613_523)"/>
<path style="mix-blend-mode:multiply" opacity="0.4" d="M110.984 224.351C95.1931 229.728 84.9491 235.954 82.2891 242.519C82.3268 243.877 82.3645 245.235 82.4023 246.594C85.3453 239.972 96.042 233.69 112.285 228.313C113.191 228.03 113.757 227.181 113.7 226.276C113.7 224.861 112.285 223.898 110.984 224.351Z" fill="url(#paint36_linear_613_523)"/>
<path style="mix-blend-mode:multiply" opacity="0.4" d="M110.984 232.501C95.5894 237.765 85.4586 243.82 82.5156 250.216C82.5156 251.65 82.5156 253.083 82.5156 254.517C85.6284 248.009 96.212 241.783 112.285 236.463C113.134 236.18 113.757 235.331 113.7 234.425C113.7 233.011 112.285 232.048 110.984 232.501Z" fill="url(#paint37_linear_613_523)"/>
<path d="M81.8945 234.539L82.8001 264.874C83.3095 280.325 127.002 292.097 186.428 294.474L185.523 264.139C126.096 261.818 82.3473 250.046 81.8945 234.539Z" fill="#24B7B4"/>
<path d="M281.511 148.739C279.304 148.739 277.153 147.946 275.512 146.475L278.625 142.909C279.53 143.645 280.605 144.041 281.794 143.985C282.926 143.928 284.001 143.419 284.737 142.513C285.529 141.664 285.869 140.532 285.812 139.4C285.756 138.268 285.246 137.193 284.341 136.457L287.51 132.892C289.321 134.476 290.453 136.684 290.566 139.117C290.736 141.551 289.944 143.871 288.303 145.682C286.718 147.494 284.511 148.569 282.077 148.739C281.888 148.739 281.7 148.739 281.511 148.739Z" fill="#CFE1EF"/>
<path d="M478.016 148.852C476.828 148.852 475.696 148.569 474.564 148.116C472.3 147.154 470.546 145.456 469.64 143.192C468.735 140.928 468.735 138.494 469.64 136.231C470.602 133.967 472.357 132.269 474.564 131.307L476.432 135.721C475.356 136.174 474.507 137.023 474.055 138.042C473.602 139.117 473.602 140.306 474.055 141.381C474.507 142.456 475.3 143.249 476.375 143.701C477.45 144.154 478.639 144.154 479.658 143.701L481.469 148.116C480.393 148.569 479.205 148.852 478.016 148.852Z" fill="#E6BC7A"/>
<path d="M136.284 46.129C135.095 46.129 133.907 45.9026 132.775 45.3932C130.511 44.4877 128.756 42.7332 127.851 40.4693C125.927 35.8284 128.191 30.5083 132.831 28.6406L134.643 33.0552C132.435 33.9607 131.36 36.451 132.265 38.6582C133.171 40.8655 135.718 41.9408 137.925 41.0353L139.736 45.4498C138.604 45.9026 137.416 46.129 136.284 46.129Z" fill="#E6BC7A"/>
<path d="M6.6784 183.772C4.24475 183.772 1.81109 182.81 0 180.885L3.50899 177.603C5.15029 179.357 7.86693 179.47 9.62143 177.829C11.3193 176.188 11.4325 173.471 9.79122 171.717L13.3002 168.491C16.696 172.113 16.5262 177.886 12.8474 181.338C11.0929 182.923 8.88567 183.772 6.6784 183.772Z" fill="#CFE1EF"/>
<path d="M161.642 163.453C156.322 163.453 156.322 171.773 161.642 171.773C167.019 171.773 167.019 163.453 161.642 163.453Z" fill="white"/>
<path d="M467.771 94.6885C462.451 94.6885 462.451 102.952 467.771 102.952C473.091 102.952 473.091 94.6885 467.771 94.6885Z" fill="white"/>
<path d="M366.181 288.588C360.861 288.588 360.861 296.852 366.181 296.852C371.558 296.852 371.558 288.588 366.181 288.588Z" fill="white"/>
<path d="M70.2947 64.8057C64.9747 64.8057 64.9747 73.0688 70.2947 73.0688C75.6148 73.0688 75.6714 64.8057 70.2947 64.8057Z" fill="white"/>
<path d="M257.628 17.7734C254.572 17.7734 254.572 22.471 257.628 22.471C260.628 22.471 260.684 17.7734 257.628 17.7734Z" fill="white"/>
<path d="M236.914 163.283C233.914 163.283 233.914 168.037 236.914 168.037C239.97 168.037 239.97 163.283 236.914 163.283Z" fill="white"/>
<path d="M331.487 143.927C328.431 143.927 328.431 148.681 331.487 148.681C334.544 148.681 334.544 143.927 331.487 143.927Z" fill="white"/>
<path d="M353.448 76.6904C350.392 76.6904 350.392 81.388 353.448 81.388C356.505 81.388 356.505 76.6904 353.448 76.6904Z" fill="white"/>
<path d="M431.269 24.3389C428.213 24.3389 428.213 29.093 431.269 29.093C434.325 29.093 434.325 24.3389 431.269 24.3389Z" fill="white"/>
<path d="M415.023 214.277C411.966 214.277 411.966 219.031 415.023 219.031C418.079 219.031 418.079 214.277 415.023 214.277Z" fill="white"/>
<path d="M325.32 231.029C322.263 231.029 322.263 235.727 325.32 235.727C328.376 235.727 328.376 231.029 325.32 231.029Z" fill="white"/>
<path d="M178.452 306.19C175.396 306.19 175.396 310.944 178.452 310.944C181.509 310.944 181.509 306.19 178.452 306.19Z" fill="white"/>
<path d="M75.5578 210.315C72.5016 210.315 72.5016 215.069 75.5578 215.069C78.614 215.069 78.614 210.315 75.5578 210.315Z" fill="white"/>
<path d="M15.339 126.778C12.2828 126.778 12.2828 131.532 15.339 131.532C18.3953 131.532 18.3953 126.778 15.339 126.778Z" fill="white"/>
<path d="M168.378 38.8838C165.322 38.8838 165.322 43.5813 168.378 43.5813C171.378 43.5813 171.378 38.8838 168.378 38.8838Z" fill="white"/>
<path d="M467.32 174.263C464.263 174.263 464.263 179.017 467.32 179.017C470.376 179.017 470.376 174.263 467.32 174.263Z" fill="white"/>
<defs>
<linearGradient id="paint0_linear_613_523" x1="52.9919" y1="59.824" x2="107.391" y2="139.23" gradientUnits="userSpaceOnUse">
<stop stop-color="#9BC3EA"/>
<stop offset="1" stop-color="#EBF4FA"/>
</linearGradient>
<linearGradient id="paint1_linear_613_523" x1="394.146" y1="-6.7015" x2="422.073" y2="52.6926" gradientUnits="userSpaceOnUse">
<stop stop-color="#9BC3EA"/>
<stop offset="1" stop-color="#EBF4FA"/>
</linearGradient>
<linearGradient id="paint2_linear_613_523" x1="281.541" y1="16.6802" x2="309.013" y2="144.152" gradientUnits="userSpaceOnUse">
<stop stop-color="#9BC3EA"/>
<stop offset="1" stop-color="#EBF4FA"/>
</linearGradient>
<linearGradient id="paint3_linear_613_523" x1="196.629" y1="48.2459" x2="250.355" y2="48.2459" gradientUnits="userSpaceOnUse">
<stop stop-color="#9BC3EA"/>
<stop offset="1" stop-color="#EBF4FA"/>
</linearGradient>
<linearGradient id="paint4_linear_613_523" x1="196.624" y1="55.9471" x2="250.279" y2="55.9471" gradientUnits="userSpaceOnUse">
<stop stop-color="#9BC3EA"/>
<stop offset="1" stop-color="#EBF4FA"/>
</linearGradient>
<linearGradient id="paint5_linear_613_523" x1="196.631" y1="63.6477" x2="250.227" y2="63.6477" gradientUnits="userSpaceOnUse">
<stop stop-color="#9BC3EA"/>
<stop offset="1" stop-color="#EBF4FA"/>
</linearGradient>
<linearGradient id="paint6_linear_613_523" x1="196.639" y1="72.7552" x2="217.201" y2="72.7552" gradientUnits="userSpaceOnUse">
<stop stop-color="#9BC3EA"/>
<stop offset="1" stop-color="#EBF4FA"/>
</linearGradient>
<linearGradient id="paint7_linear_613_523" x1="266.464" y1="84.4897" x2="320.19" y2="84.4897" gradientUnits="userSpaceOnUse">
<stop stop-color="#9BC3EA"/>
<stop offset="1" stop-color="#EBF4FA"/>
</linearGradient>
<linearGradient id="paint8_linear_613_523" x1="266.538" y1="92.1909" x2="320.194" y2="92.1909" gradientUnits="userSpaceOnUse">
<stop stop-color="#9BC3EA"/>
<stop offset="1" stop-color="#EBF4FA"/>
</linearGradient>
<linearGradient id="paint9_linear_613_523" x1="266.592" y1="99.8915" x2="320.188" y2="99.8915" gradientUnits="userSpaceOnUse">
<stop stop-color="#9BC3EA"/>
<stop offset="1" stop-color="#EBF4FA"/>
</linearGradient>
<linearGradient id="paint10_linear_613_523" x1="299.617" y1="109" x2="320.179" y2="109" gradientUnits="userSpaceOnUse">
<stop stop-color="#9BC3EA"/>
<stop offset="1" stop-color="#EBF4FA"/>
</linearGradient>
<linearGradient id="paint11_linear_613_523" x1="350.617" y1="97.9717" x2="450.463" y2="97.9717" gradientUnits="userSpaceOnUse">
<stop stop-color="#9BC3EA"/>
<stop offset="1" stop-color="#EBF4FA"/>
</linearGradient>
<linearGradient id="paint12_linear_613_523" x1="323.331" y1="78.4966" x2="458.876" y2="128.356" gradientUnits="userSpaceOnUse">
<stop stop-color="#9BC3EA"/>
<stop offset="1" stop-color="#EBF4FA"/>
</linearGradient>
<linearGradient id="paint13_linear_613_523" x1="320.08" y1="87.2611" x2="455.625" y2="137.12" gradientUnits="userSpaceOnUse">
<stop stop-color="#9BC3EA"/>
<stop offset="1" stop-color="#EBF4FA"/>
</linearGradient>
<linearGradient id="paint14_linear_613_523" x1="316.829" y1="96.0256" x2="452.374" y2="145.885" gradientUnits="userSpaceOnUse">
<stop stop-color="#9BC3EA"/>
<stop offset="1" stop-color="#EBF4FA"/>
</linearGradient>
<linearGradient id="paint15_linear_613_523" x1="313.578" y1="104.79" x2="449.123" y2="154.649" gradientUnits="userSpaceOnUse">
<stop stop-color="#9BC3EA"/>
<stop offset="1" stop-color="#EBF4FA"/>
</linearGradient>
<linearGradient id="paint16_linear_613_523" x1="310.327" y1="113.555" x2="445.872" y2="163.414" gradientUnits="userSpaceOnUse">
<stop stop-color="#9BC3EA"/>
<stop offset="1" stop-color="#EBF4FA"/>
</linearGradient>
<linearGradient id="paint17_linear_613_523" x1="306.775" y1="119.817" x2="443.284" y2="170.033" gradientUnits="userSpaceOnUse">
<stop stop-color="#9BC3EA"/>
<stop offset="1" stop-color="#EBF4FA"/>
</linearGradient>
<linearGradient id="paint18_linear_613_523" x1="373.975" y1="187.857" x2="395.691" y2="187.857" gradientUnits="userSpaceOnUse">
<stop stop-color="#9BC3EA"/>
<stop offset="1" stop-color="#EBF4FA"/>
</linearGradient>
<linearGradient id="paint19_linear_613_523" x1="374.107" y1="199.979" x2="395.692" y2="199.979" gradientUnits="userSpaceOnUse">
<stop stop-color="#9BC3EA"/>
<stop offset="1" stop-color="#EBF4FA"/>
</linearGradient>
<linearGradient id="paint20_linear_613_523" x1="374.018" y1="209.674" x2="395.692" y2="209.674" gradientUnits="userSpaceOnUse">
<stop stop-color="#9BC3EA"/>
<stop offset="1" stop-color="#EBF4FA"/>
</linearGradient>
<linearGradient id="paint21_linear_613_523" x1="74.8885" y1="63.799" x2="174.734" y2="63.799" gradientUnits="userSpaceOnUse">
<stop stop-color="#9BC3EA"/>
<stop offset="1" stop-color="#EBF4FA"/>
</linearGradient>
<linearGradient id="paint22_linear_613_523" x1="48.622" y1="99.0218" x2="174.09" y2="57.4255" gradientUnits="userSpaceOnUse">
<stop stop-color="#9BC3EA"/>
<stop offset="1" stop-color="#EBF4FA"/>
</linearGradient>
<linearGradient id="paint23_linear_613_523" x1="51.6177" y1="107.989" x2="177.086" y2="66.3931" gradientUnits="userSpaceOnUse">
<stop stop-color="#9BC3EA"/>
<stop offset="1" stop-color="#EBF4FA"/>
</linearGradient>
<linearGradient id="paint24_linear_613_523" x1="54.6128" y1="116.957" x2="180.081" y2="75.3602" gradientUnits="userSpaceOnUse">
<stop stop-color="#9BC3EA"/>
<stop offset="1" stop-color="#EBF4FA"/>
</linearGradient>
<linearGradient id="paint25_linear_613_523" x1="57.6084" y1="125.924" x2="183.077" y2="84.3274" gradientUnits="userSpaceOnUse">
<stop stop-color="#9BC3EA"/>
<stop offset="1" stop-color="#EBF4FA"/>
</linearGradient>
<linearGradient id="paint26_linear_613_523" x1="60.6035" y1="134.891" x2="186.072" y2="93.295" gradientUnits="userSpaceOnUse">
<stop stop-color="#9BC3EA"/>
<stop offset="1" stop-color="#EBF4FA"/>
</linearGradient>
<linearGradient id="paint27_linear_613_523" x1="63.16" y1="142.62" x2="189.473" y2="100.744" gradientUnits="userSpaceOnUse">
<stop stop-color="#9BC3EA"/>
<stop offset="1" stop-color="#EBF4FA"/>
</linearGradient>
<linearGradient id="paint28_linear_613_523" x1="225.689" y1="104.352" x2="203.37" y2="120.12" gradientUnits="userSpaceOnUse">
<stop stop-color="#1C0035"/>
<stop offset="1" stop-color="#46008D"/>
</linearGradient>
<linearGradient id="paint29_linear_613_523" x1="227.203" y1="106.804" x2="204.885" y2="122.573" gradientUnits="userSpaceOnUse">
<stop stop-color="#1C0035"/>
<stop offset="1" stop-color="#46008D"/>
</linearGradient>
<linearGradient id="paint30_linear_613_523" x1="225.618" y1="105.611" x2="203.299" y2="121.379" gradientUnits="userSpaceOnUse">
<stop stop-color="#1C0035"/>
<stop offset="1" stop-color="#46008D"/>
</linearGradient>
<linearGradient id="paint31_linear_613_523" x1="227.136" y1="108.064" x2="204.818" y2="123.832" gradientUnits="userSpaceOnUse">
<stop stop-color="#1C0035"/>
<stop offset="1" stop-color="#46008D"/>
</linearGradient>
<linearGradient id="paint32_linear_613_523" x1="225.55" y1="106.87" x2="203.23" y2="122.639" gradientUnits="userSpaceOnUse">
<stop stop-color="#1C0035"/>
<stop offset="1" stop-color="#46008D"/>
</linearGradient>
<linearGradient id="paint33_linear_613_523" x1="227.064" y1="109.322" x2="204.745" y2="125.091" gradientUnits="userSpaceOnUse">
<stop stop-color="#1C0035"/>
<stop offset="1" stop-color="#46008D"/>
</linearGradient>
<linearGradient id="paint34_linear_613_523" x1="225.482" y1="108.129" x2="203.163" y2="123.897" gradientUnits="userSpaceOnUse">
<stop stop-color="#1C0035"/>
<stop offset="1" stop-color="#46008D"/>
</linearGradient>
<linearGradient id="paint35_linear_613_523" x1="90.2226" y1="189.179" x2="149.663" y2="215.83" gradientUnits="userSpaceOnUse">
<stop stop-color="#9BC3EA"/>
<stop offset="1" stop-color="#EBF4FA"/>
</linearGradient>
<linearGradient id="paint36_linear_613_523" x1="75.9214" y1="222.502" x2="113.061" y2="224.65" gradientUnits="userSpaceOnUse">
<stop stop-color="#9BC3EA"/>
<stop offset="1" stop-color="#EBF4FA"/>
</linearGradient>
<linearGradient id="paint37_linear_613_523" x1="75.4348" y1="230.645" x2="112.544" y2="232.79" gradientUnits="userSpaceOnUse">
<stop stop-color="#9BC3EA"/>
<stop offset="1" stop-color="#EBF4FA"/>
</linearGradient>
</defs>
</svg>
