<svg width="24" height="24" viewBox="0 0 24 24" fill="none" xmlns="http://www.w3.org/2000/svg">
<path d="M23.0004 4.1V2.3L21.2004 2.1C21.1004 2.1 20.5004 2 19.5004 2C15.4004 2 12.4004 3.2 10.7004 5.3C9.40039 4.5 7.60039 4 5.50039 4C4.50039 4 3.80039 4.1 3.80039 4.1L1.90039 4.4L2.00039 6.1C2.10039 9.1 3.60039 14.8 8.80039 14.8H9.00039V18.2C5.20039 18.7 2.00039 20 2.00039 20V22H22.0004V20C22.0004 20 18.8004 18.7 15.0004 18.2V15C21.3004 14.9 23.0004 7.8 23.0004 4.1ZM12.0004 18H11.0004V12.4C11.0004 12.4 10.8004 9 8.00039 9C8.00039 9 9.50039 9.8 9.90039 12.7C9.50039 12.8 9.10039 12.8 8.80039 12.8C4.20039 12.8 4.00039 6.1 4.00039 6.1C4.00039 6.1 4.60039 6 5.50039 6C7.40039 6 10.5004 6.4 11.4004 9.1C11.9004 4.6 17.0004 4 19.5004 4C20.4004 4 21.0004 4.1 21.0004 4.1C21.0004 4.1 21.0004 13.1 14.7004 13.1H14.0004C14.0004 11.1 16.0004 8.1 16.0004 8.1C13.0004 9.1 13.0004 13 13.0004 13V18H12.0004Z" fill="#19918F"/>
</svg>
