<svg width="24" height="22" viewBox="0 0 24 22" fill="none" xmlns="http://www.w3.org/2000/svg">
<path d="M22.5 14L24 21.5H0L1.5 14H4.21875C3.82031 13.3125 3.51953 12.5898 3.31641 11.832C3.11328 11.0742 3.00781 10.2969 3 9.5C3 8.67188 3.10547 7.875 3.31641 7.10938C3.52734 6.34375 3.83203 5.62891 4.23047 4.96484C4.62891 4.30078 5.09766 3.69141 5.63672 3.13672C6.17578 2.58203 6.78125 2.11328 7.45312 1.73047C8.125 1.34766 8.84375 1.04688 9.60938 0.828125C10.375 0.609375 11.1719 0.5 12 0.5C12.8281 0.5 13.625 0.605469 14.3906 0.816406C15.1562 1.02734 15.8711 1.33203 16.5352 1.73047C17.1992 2.12891 17.8086 2.59766 18.3633 3.13672C18.918 3.67578 19.3867 4.28125 19.7695 4.95312C20.1523 5.625 20.4531 6.34375 20.6719 7.10938C20.8906 7.875 21 8.67188 21 9.5C21 10.2969 20.8984 11.0742 20.6953 11.832C20.4922 12.5898 20.1875 13.3125 19.7812 14H22.5ZM19.5 9.5C19.5 9.25 19.4883 9 19.4648 8.75C19.4414 8.5 19.4023 8.25 19.3477 8H16.4297C16.4766 8.50781 16.5 9.00781 16.5 9.5C16.5 10 16.4766 10.5 16.4297 11H19.3477C19.3945 10.75 19.4297 10.5 19.4531 10.25C19.4766 10 19.4922 9.75 19.5 9.5ZM9.07031 11H14.9297C14.9766 10.5 15 10 15 9.5C15 9.00781 14.9766 8.50781 14.9297 8H9.07031C9.02344 8.50781 9 9.00781 9 9.5C9 10 9.02344 10.5 9.07031 11ZM14.7188 12.5H9.28125C9.3125 12.6797 9.36719 12.9141 9.44531 13.2031C9.52344 13.4922 9.62109 13.8086 9.73828 14.1523C9.85547 14.4961 9.99219 14.832 10.1484 15.1602C10.3047 15.4883 10.4766 15.793 10.6641 16.0742C10.8516 16.3555 11.0586 16.5781 11.2852 16.7422C11.5117 16.9062 11.75 16.9922 12 17C12.25 17 12.4844 16.9141 12.7031 16.7422C12.9219 16.5703 13.1289 16.3477 13.3242 16.0742C13.5195 15.8008 13.6914 15.4961 13.8398 15.1602C13.9883 14.8242 14.125 14.4883 14.25 14.1523C14.375 13.8164 14.4727 13.5039 14.543 13.2148C14.6133 12.9258 14.6719 12.6875 14.7188 12.5ZM9.12891 16.4258C8.76953 15.832 8.48047 15.1992 8.26172 14.5273C8.04297 13.8555 7.875 13.1797 7.75781 12.5H5.13281C5.32031 12.9141 5.55469 13.3164 5.83594 13.707C6.11719 14.0977 6.42969 14.4688 6.77344 14.8203C7.11719 15.1719 7.49219 15.4805 7.89844 15.7461C8.30469 16.0117 8.71484 16.2383 9.12891 16.4258ZM16.2422 12.5C16.1172 13.1719 15.9492 13.8438 15.7383 14.5156C15.5273 15.1875 15.2422 15.8242 14.8828 16.4258C15.3047 16.2383 15.7109 16.0078 16.1016 15.7344C16.4922 15.4609 16.8633 15.1562 17.2148 14.8203C17.5664 14.4844 17.8828 14.1172 18.1641 13.7188C18.4453 13.3203 18.6797 12.9141 18.8672 12.5H16.2422ZM18.8672 6.5C18.4688 5.61719 17.9297 4.83594 17.25 4.15625C16.5703 3.47656 15.7773 2.94922 14.8711 2.57422C15.2305 3.16797 15.5156 3.80078 15.7266 4.47266C15.9375 5.14453 16.1094 5.82031 16.2422 6.5H18.8672ZM12 2C11.75 2 11.5156 2.08594 11.2969 2.25781C11.0781 2.42969 10.8711 2.65234 10.6758 2.92578C10.4805 3.19922 10.3086 3.50391 10.1602 3.83984C10.0117 4.17578 9.875 4.51172 9.75 4.84766C9.625 5.18359 9.52344 5.49609 9.44531 5.78516C9.36719 6.07422 9.3125 6.3125 9.28125 6.5H14.7188C14.6797 6.32031 14.625 6.08594 14.5547 5.79688C14.4844 5.50781 14.3867 5.19141 14.2617 4.84766C14.1367 4.50391 14 4.16797 13.8516 3.83984C13.7031 3.51172 13.5312 3.20703 13.3359 2.92578C13.1406 2.64453 12.9336 2.42188 12.7148 2.25781C12.4961 2.09375 12.2578 2.00781 12 2ZM9.12891 2.57422C8.23047 2.94922 7.44141 3.47656 6.76172 4.15625C6.08203 4.83594 5.53906 5.61719 5.13281 6.5H7.75781C7.88281 5.82031 8.05078 5.14453 8.26172 4.47266C8.47266 3.80078 8.76172 3.16797 9.12891 2.57422ZM4.65234 8C4.60547 8.25 4.57031 8.5 4.54688 8.75C4.52344 9 4.50781 9.25 4.5 9.5C4.5 9.75 4.51172 10 4.53516 10.25C4.55859 10.5 4.59766 10.75 4.65234 11H7.57031C7.52344 10.5 7.5 10 7.5 9.5C7.5 9.00781 7.52344 8.50781 7.57031 8H4.65234ZM1.82812 20H22.1719L21.2695 15.5H18.6914C18.2695 15.9766 17.8047 16.3984 17.2969 16.7656C16.7891 17.1328 16.2461 17.4492 15.668 17.7148C15.0898 17.9805 14.4961 18.1758 13.8867 18.3008C13.2773 18.4258 12.6484 18.4922 12 18.5C11.3594 18.5 10.7305 18.4336 10.1133 18.3008C9.49609 18.168 8.90234 17.9727 8.33203 17.7148C7.76172 17.457 7.22266 17.1445 6.71484 16.7773C6.20703 16.4102 5.73828 15.9844 5.30859 15.5H2.73047L1.82812 20Z" fill="#19918F"/>
</svg>
