<svg width="30" height="30" viewBox="0 0 30 30" fill="none" xmlns="http://www.w3.org/2000/svg">
<g clip-path="url(#clip0_437_783)">
<path fill-rule="evenodd" clip-rule="evenodd" d="M1.07394 7.68747C0.752246 7.83878 0.480248 8.07851 0.289732 8.37865C0.0992153 8.6788 -0.00195313 9.02696 -0.00195312 9.38247C-0.00195313 9.73797 0.0992153 10.0861 0.289732 10.3863C0.480248 10.6864 0.752246 10.9262 1.07394 11.0775L3.75519 12.3431V19.6931C3.75519 21.0843 4.20707 22.6368 5.52519 23.5931C7.18644 24.7931 10.2127 26.2556 15.0127 26.2556C19.8127 26.2556 22.8314 24.7837 24.5002 23.5931C25.8183 22.6406 26.2702 21.0993 26.2702 19.6931V12.3431L28.1452 11.4562V19.6875C28.1452 19.9361 28.244 20.1746 28.4198 20.3504C28.5956 20.5262 28.8341 20.625 29.0827 20.625C29.3313 20.625 29.5698 20.5262 29.7456 20.3504C29.9214 20.1746 30.0202 19.9361 30.0202 19.6875V9.37497C30.0203 9.01988 29.9195 8.67206 29.7297 8.372C29.5398 8.07193 29.2686 7.83195 28.9477 7.67997L18.2227 2.61747C17.2203 2.14345 16.1253 1.89758 15.0164 1.89758C13.9076 1.89758 12.8126 2.14345 11.8102 2.61747L1.08519 7.67997L1.07394 7.68747ZM5.63019 19.6875V13.2187L11.7989 16.1437C12.8013 16.6177 13.8964 16.8636 15.0052 16.8636C16.114 16.8636 17.209 16.6177 18.2114 16.1437L24.3802 13.2187V19.6875C24.3802 20.73 24.0427 21.5812 23.3864 22.05C22.0289 23.0306 19.3927 24.375 15.0052 24.375C10.6177 24.375 7.97394 23.04 6.62394 22.05C5.96957 21.5775 5.63019 20.7206 5.63019 19.6875ZM12.6052 4.31247C13.3554 3.95711 14.1751 3.77278 15.0052 3.77278C15.8353 3.77278 16.655 3.95711 17.4052 4.31247L28.1302 9.37497L17.4052 14.4375C16.655 14.7928 15.8353 14.9772 15.0052 14.9772C14.1751 14.9772 13.3554 14.7928 12.6052 14.4375L1.88019 9.37497L12.6052 4.31247Z" fill="#19918F"/>
</g>
<defs>
<clipPath id="clip0_437_783">
<rect width="30" height="30" fill="white"/>
</clipPath>
</defs>
</svg>
