<svg width="22" height="22" viewBox="0 0 22 22" fill="none" xmlns="http://www.w3.org/2000/svg">
<path d="M19.1934 13.5V3.5C19.1934 2.83696 18.9776 2.20107 18.5935 1.73223C18.2093 1.26339 17.6883 1 17.1451 1H4.85493C4.31168 1 3.79067 1.26339 3.40653 1.73223C3.02239 2.20107 2.80658 2.83696 2.80658 3.5V13.5M19.1934 13.5H2.80658M19.1934 13.5L20.784 17.3825C20.94 17.7636 21.0137 18.1871 20.9979 18.6128C20.9822 19.0384 20.8775 19.4521 20.694 19.8145C20.5104 20.177 20.254 20.4761 19.9491 20.6836C19.6441 20.8911 19.3008 21 18.9517 21H3.04931C2.70011 21.0002 2.35668 20.8914 2.05161 20.6841C1.74655 20.4767 1.48999 20.1775 1.3063 19.8151C1.12261 19.4526 1.0179 19.0389 1.0021 18.6131C0.986299 18.1874 1.05994 17.7637 1.21603 17.3825L2.80658 13.5" stroke="#19918F" stroke-width="2" stroke-linecap="round" stroke-linejoin="round"/>
</svg>
