<svg width="22" height="23" viewBox="0 0 22 23" fill="none" xmlns="http://www.w3.org/2000/svg">
<path d="M7.45177 22H3.58118C2.15529 22 1 20.7749 1 19.2628V11.211C1.00087 10.6244 1.11993 10.0448 1.3492 9.511C1.57848 8.97719 1.91268 8.50149 2.32941 8.11577L9.30588 1.67206C9.77566 1.23869 10.3773 1 11 1C11.6227 1 12.2243 1.23869 12.6941 1.67206L19.6706 8.11702C20.0872 8.5026 20.4213 8.97809 20.6506 9.51168C20.8798 10.0453 20.999 10.6246 21 11.211V19.2628C21 19.9886 20.7282 20.6846 20.2444 21.1979C19.7606 21.7111 19.1044 21.9997 18.42 22H14.8706V13.7897C14.8706 12.6569 14.0047 11.7375 12.9353 11.7375H9.38824C8.31882 11.7375 7.45294 12.6569 7.45294 13.7897L7.45177 22ZM7.45177 22H14.8718" stroke="#19918F" stroke-width="1.6" stroke-linejoin="round"/>
</svg>
