<svg width="80" height="36" viewBox="0 0 80 36" fill="none" xmlns="http://www.w3.org/2000/svg">
<path d="M25.853 33V15.5455H32.8416C34.1257 15.5455 35.1967 15.7358 36.0547 16.1165C36.9126 16.4972 37.5575 17.0256 37.9893 17.7017C38.4212 18.3722 38.6371 19.1449 38.6371 20.0199C38.6371 20.7017 38.5007 21.3011 38.228 21.8182C37.9553 22.3295 37.5803 22.75 37.103 23.0795C36.6314 23.4034 36.0916 23.6335 35.4837 23.7699V23.9403C36.1484 23.9687 36.7706 24.1562 37.3501 24.5028C37.9354 24.8494 38.4098 25.3352 38.7734 25.9602C39.1371 26.5795 39.3189 27.3182 39.3189 28.1761C39.3189 29.1023 39.0888 29.929 38.6286 30.6562C38.174 31.3778 37.5007 31.9489 36.6087 32.3693C35.7166 32.7898 34.6172 33 33.3104 33H25.853ZM29.5433 29.983H32.5518C33.5803 29.983 34.3303 29.7869 34.8018 29.3949C35.2734 28.9972 35.5092 28.4687 35.5092 27.8097C35.5092 27.3267 35.3928 26.9006 35.1598 26.5312C34.9268 26.1619 34.5945 25.8722 34.1626 25.6619C33.7365 25.4517 33.228 25.3466 32.6371 25.3466H29.5433V29.983ZM29.5433 22.8494H32.2791C32.7848 22.8494 33.2337 22.7614 33.6257 22.5852C34.0234 22.4034 34.3359 22.1477 34.5632 21.8182C34.7962 21.4886 34.9126 21.0938 34.9126 20.6335C34.9126 20.0028 34.6882 19.4943 34.2393 19.108C33.7962 18.7216 33.1655 18.5284 32.3473 18.5284H29.5433V22.8494ZM45.4105 15.5455V33H41.7202V15.5455H45.4105ZM47.782 18.5881V15.5455H62.1172V18.5881H56.7734V33H53.1257V18.5881H47.782ZM73.9467 20.5653C73.8786 19.8778 73.5859 19.3437 73.0689 18.9631C72.5518 18.5824 71.8501 18.392 70.9638 18.392C70.3615 18.392 69.853 18.4773 69.4382 18.6477C69.0234 18.8125 68.7053 19.0426 68.4837 19.3381C68.2678 19.6335 68.1598 19.9688 68.1598 20.3438C68.1484 20.6562 68.2138 20.929 68.3558 21.1619C68.5036 21.3949 68.7053 21.5966 68.9609 21.767C69.2166 21.9318 69.5121 22.0767 69.8473 22.2017C70.1825 22.321 70.5405 22.4233 70.9212 22.5085L72.4893 22.8835C73.2507 23.054 73.9496 23.2812 74.5859 23.5653C75.2223 23.8494 75.7734 24.1989 76.2393 24.6136C76.7053 25.0284 77.0661 25.517 77.3217 26.0795C77.5831 26.642 77.7166 27.2869 77.7223 28.0142C77.7166 29.0824 77.4439 30.0085 76.9041 30.7926C76.37 31.571 75.5973 32.1761 74.5859 32.608C73.5803 33.0341 72.3672 33.2472 70.9467 33.2472C69.5376 33.2472 68.3104 33.0312 67.2649 32.5994C66.2251 32.1676 65.4126 31.5284 64.8274 30.6818C64.2479 29.8295 63.9439 28.7756 63.9155 27.5199H67.4865C67.5263 28.1051 67.6939 28.5937 67.9893 28.9858C68.2905 29.3722 68.6911 29.6648 69.1911 29.8636C69.6967 30.0568 70.2678 30.1534 70.9041 30.1534C71.5291 30.1534 72.0717 30.0625 72.532 29.8807C72.9979 29.6989 73.3587 29.446 73.6143 29.1222C73.87 28.7983 73.9979 28.4261 73.9979 28.0057C73.9979 27.6136 73.8814 27.2841 73.6484 27.017C73.4212 26.75 73.0859 26.5227 72.6428 26.3352C72.2053 26.1477 71.6683 25.9773 71.032 25.8239L69.1314 25.3466C67.6598 24.9886 66.4979 24.429 65.6456 23.6676C64.7933 22.9062 64.37 21.8807 64.3757 20.5909C64.37 19.5341 64.6513 18.6108 65.2195 17.821C65.7933 17.0312 66.5803 16.4148 67.5803 15.9716C68.5803 15.5284 69.7166 15.3068 70.9893 15.3068C72.2848 15.3068 73.4155 15.5284 74.3814 15.9716C75.353 16.4148 76.1087 17.0312 76.6484 17.821C77.1882 18.6108 77.4666 19.5256 77.4837 20.5653H73.9467Z" fill="#19918F"/>
<path d="M0.03125 5.44287H4.55746V25.6993H0.03125V5.44287Z" fill="#19918F"/>
<path d="M19.8448 24.7183L19.8454 24.6713C19.8454 24.6713 19.8439 24.4482 19.8448 24.7183C19.8448 24.7183 19.9864 19.1565 15.9404 16.6196C12.9606 14.7515 11.6278 13.7738 11.1309 13.022L10.8813 12.6782L10.6274 13.0235C10.1296 13.775 7.59096 14.7521 4.61238 16.6196V24.2304H2.39862C2.13109 24.2304 1.91406 24.4488 1.91406 24.7183V25.554V26.0419H19.8448V25.554V24.7183Z" fill="#19918F"/>
<path d="M1.50458e-06 4.52621L0 2.11221L3.00915e-06 0C3.00915e-06 0 1.28028 1.57978 3.01866 2.11221C4.75705 2.64485 4.51468 4.52621 4.51468 4.52621H1.50458e-06Z" fill="#D8A30E"/>
<circle cx="10.1084" cy="25.0142" r="10.1084" fill="#19918F"/>
<path d="M12.7401 24.9287C12.7401 23.7145 11.7522 22.7266 10.538 22.7266C9.32386 22.7266 8.33594 23.7145 8.33594 24.9287C8.33594 26.1428 9.32386 27.1307 10.538 27.1307C11.7522 27.1307 12.7401 26.1428 12.7401 24.9287Z" fill="#FFB746"/>
<path d="M4.62891 24.9284C4.62891 28.1891 7.27912 30.8393 10.5398 30.8393C13.8004 30.8393 16.4506 28.1891 16.4506 24.9284C16.4506 21.6678 13.8004 19.0176 10.5398 19.0176C9.54967 19.0176 8.62656 19.2632 7.80767 19.6876C8.26923 20.7372 9.31889 21.4668 10.5398 21.4668C12.4455 21.4668 13.9865 23.0152 13.9865 24.921C13.9865 26.8268 12.4455 28.3678 10.5398 28.3678C8.57445 28.3678 6.99623 26.73 7.09301 24.7498L7.07068 24.7423C7.07068 24.2659 7.07068 22.0847 7.07068 20.1417C5.58924 21.2211 4.62891 22.9631 4.62891 24.9284Z" fill="#FAFAFA"/>
</svg>
