<svg width="143" height="32" viewBox="0 0 143 32" fill="none" xmlns="http://www.w3.org/2000/svg">
<path d="M34.853 27V9.54545H41.8416C43.1257 9.54545 44.1967 9.7358 45.0547 10.1165C45.9126 10.4972 46.5575 11.0256 46.9893 11.7017C47.4212 12.3722 47.6371 13.1449 47.6371 14.0199C47.6371 14.7017 47.5007 15.3011 47.228 15.8182C46.9553 16.3295 46.5803 16.75 46.103 17.0795C45.6314 17.4034 45.0916 17.6335 44.4837 17.7699V17.9403C45.1484 17.9687 45.7706 18.1562 46.3501 18.5028C46.9354 18.8494 47.4098 19.3352 47.7734 19.9602C48.1371 20.5795 48.3189 21.3182 48.3189 22.1761C48.3189 23.1023 48.0888 23.929 47.6286 24.6562C47.174 25.3778 46.5007 25.9489 45.6087 26.3693C44.7166 26.7898 43.6172 27 42.3104 27H34.853ZM38.5433 23.983H41.5518C42.5803 23.983 43.3303 23.7869 43.8018 23.3949C44.2734 22.9972 44.5092 22.4687 44.5092 21.8097C44.5092 21.3267 44.3928 20.9006 44.1598 20.5312C43.9268 20.1619 43.5945 19.8722 43.1626 19.6619C42.7365 19.4517 42.228 19.3466 41.6371 19.3466H38.5433V23.983ZM38.5433 16.8494H41.2791C41.7848 16.8494 42.2337 16.7614 42.6257 16.5852C43.0234 16.4034 43.3359 16.1477 43.5632 15.8182C43.7962 15.4886 43.9126 15.0938 43.9126 14.6335C43.9126 14.0028 43.6882 13.4943 43.2393 13.108C42.7962 12.7216 42.1655 12.5284 41.3473 12.5284H38.5433V16.8494ZM54.4105 9.54545V27H50.7202V9.54545H54.4105ZM56.782 12.5881V9.54545H71.1172V12.5881H65.7734V27H62.1257V12.5881H56.782ZM82.9467 14.5653C82.8786 13.8778 82.5859 13.3437 82.0689 12.9631C81.5518 12.5824 80.8501 12.392 79.9638 12.392C79.3615 12.392 78.853 12.4773 78.4382 12.6477C78.0234 12.8125 77.7053 13.0426 77.4837 13.3381C77.2678 13.6335 77.1598 13.9688 77.1598 14.3438C77.1484 14.6562 77.2138 14.929 77.3558 15.1619C77.5036 15.3949 77.7053 15.5966 77.9609 15.767C78.2166 15.9318 78.5121 16.0767 78.8473 16.2017C79.1825 16.321 79.5405 16.4233 79.9212 16.5085L81.4893 16.8835C82.2507 17.054 82.9496 17.2812 83.5859 17.5653C84.2223 17.8494 84.7734 18.1989 85.2393 18.6136C85.7053 19.0284 86.0661 19.517 86.3217 20.0795C86.5831 20.642 86.7166 21.2869 86.7223 22.0142C86.7166 23.0824 86.4439 24.0085 85.9041 24.7926C85.37 25.571 84.5973 26.1761 83.5859 26.608C82.5803 27.0341 81.3672 27.2472 79.9467 27.2472C78.5376 27.2472 77.3104 27.0312 76.2649 26.5994C75.2251 26.1676 74.4126 25.5284 73.8274 24.6818C73.2479 23.8295 72.9439 22.7756 72.9155 21.5199H76.4865C76.5263 22.1051 76.6939 22.5937 76.9893 22.9858C77.2905 23.3722 77.6911 23.6648 78.1911 23.8636C78.6967 24.0568 79.2678 24.1534 79.9041 24.1534C80.5291 24.1534 81.0717 24.0625 81.532 23.8807C81.9979 23.6989 82.3587 23.446 82.6143 23.1222C82.87 22.7983 82.9979 22.4261 82.9979 22.0057C82.9979 21.6136 82.8814 21.2841 82.6484 21.017C82.4212 20.75 82.0859 20.5227 81.6428 20.3352C81.2053 20.1477 80.6683 19.9773 80.032 19.8239L78.1314 19.3466C76.6598 18.9886 75.4979 18.429 74.6456 17.6676C73.7933 16.9062 73.37 15.8807 73.3757 14.5909C73.37 13.5341 73.6513 12.6108 74.2195 11.821C74.7933 11.0312 75.5803 10.4148 76.5803 9.97159C77.5803 9.52841 78.7166 9.30682 79.9893 9.30682C81.2848 9.30682 82.4155 9.52841 83.3814 9.97159C84.353 10.4148 85.1087 11.0312 85.6484 11.821C86.1882 12.6108 86.4666 13.5256 86.4837 14.5653H82.9467Z" fill="#19918F"/>
<path d="M20.8222 16.604C22.4531 15.7345 23.8722 14.2136 24.0831 12.6152C24.4583 9.76907 22.6351 7.62748 20.3072 6.64018C17.5268 5.46061 19.3821 6.3054 8.74694 3.50504C3.63521 2.15928 3.30801 0.904403 3.42271 0C2.04169 0.904403 1.6175 5.83118 4.01137 7.3128C6.47216 8.83566 11.375 9.15287 17.5364 10.9035C22.9534 12.4429 22.1518 15.2794 20.8222 16.604Z" fill="url(#paint0_linear_602_1767)"/>
<path d="M21.9178 17.4398C21.4473 17.1606 20.9344 16.9307 20.3871 16.7587C12.681 14.9916 12.0049 15.029 9.44792 14.4074C2.48015 12.713 3.31749 11.3017 3.13959 10.7383C1.85504 12.1081 1.83321 16.3928 4.2147 17.678C7.10289 19.2366 12.1849 19.7457 18.6251 21.3497C20.7198 21.8715 21.9471 22.4939 22.8636 23.2312C23.881 24.0496 24.1601 25.2461 23.3804 26.2496C22.6981 27.1277 20.8749 26.9843 18.8537 26.7023C15.2691 26.2025 10.724 25.1615 9.44779 24.8077C3.71361 23.2182 3.31735 21.702 3.13945 21.1388C1.8549 22.5087 1.83308 26.7929 4.21457 28.0784C6.10268 29.0974 7.89485 29.6831 11.7794 29.9169C14.6246 30.0879 19.7927 30.2482 22.3241 27.6182C22.5705 27.3626 24.5392 25.8707 24.9464 23.3008C25.3253 20.9122 24.014 18.6838 21.9178 17.4398Z" fill="url(#paint1_linear_602_1767)"/>
<path d="M15.8534 15.7492C15.8528 15.7493 15.8524 15.7494 15.8516 15.7496C18.1593 16.2483 20.3882 16.7594 20.3882 16.7594C20.4261 16.7713 20.4639 16.7844 20.5017 16.7969C20.6115 16.7351 20.7199 16.6715 20.8248 16.6041C22.1542 15.2792 22.9551 12.4432 17.5388 10.904C17.1649 10.7978 16.7957 10.6971 16.4313 10.6006C17.9496 11.2152 20.0936 14.5454 15.8534 15.7492Z" fill="url(#paint2_linear_602_1767)"/>
<path d="M17.2753 26.1499C17.1723 26.2327 17.0655 26.3088 16.9552 26.3799C17.6025 26.5063 18.2428 26.6167 18.855 26.7021C20.876 26.9841 22.6993 27.1274 23.3816 26.2495C24.1614 25.2459 23.8824 24.0496 22.8648 23.231C21.1807 21.8765 18.9991 21.4186 16.7812 20.9082C18.4023 21.6455 19.7628 24.1442 17.2753 26.1499Z" fill="url(#paint3_linear_602_1767)"/>
<defs>
<linearGradient id="paint0_linear_602_1767" x1="30.9475" y1="10.2399" x2="-1.29377" y2="6.92091" gradientUnits="userSpaceOnUse">
<stop offset="0.0667" stop-color="#4CE5AE"/>
<stop offset="0.6848" stop-color="#1CAABC"/>
<stop offset="0.9636" stop-color="#076266"/>
</linearGradient>
<linearGradient id="paint1_linear_602_1767" x1="2.2736" y1="20.369" x2="25.0116" y2="20.369" gradientUnits="userSpaceOnUse">
<stop offset="0.0364" stop-color="#076266"/>
<stop offset="0.3152" stop-color="#1CAABC"/>
<stop offset="0.9333" stop-color="#4CE5AE"/>
</linearGradient>
<linearGradient id="paint2_linear_602_1767" x1="19.1644" y1="12.9444" x2="15.2203" y2="17.9343" gradientUnits="userSpaceOnUse">
<stop offset="0.0364" stop-color="#076266"/>
<stop offset="0.3152" stop-color="#1CAABC"/>
<stop offset="0.9333" stop-color="#4CE5AE"/>
</linearGradient>
<linearGradient id="paint3_linear_602_1767" x1="20.3275" y1="23.0206" x2="17.9577" y2="31.0484" gradientUnits="userSpaceOnUse">
<stop offset="0.0364" stop-color="#076266"/>
<stop offset="0.3152" stop-color="#1CAABC"/>
<stop offset="0.9333" stop-color="#4CE5AE"/>
</linearGradient>
</defs>
</svg>
