<svg width="143" height="32" viewBox="0 0 143 32" fill="none" xmlns="http://www.w3.org/2000/svg">
<g clip-path="url(#clip0_1_45303)">
<path d="M33.8413 27V9.54545H40.8299C42.114 9.54545 43.185 9.7358 44.043 10.1165C44.9009 10.4972 45.5458 11.0256 45.9776 11.7017C46.4094 12.3722 46.6254 13.1449 46.6254 14.0199C46.6254 14.7017 46.489 15.3011 46.2163 15.8182C45.9435 16.3295 45.5685 16.75 45.0913 17.0795C44.6197 17.4034 44.0799 17.6335 43.4719 17.7699V17.9403C44.1367 17.9687 44.7589 18.1562 45.3384 18.5028C45.9237 18.8494 46.3981 19.3352 46.7617 19.9602C47.1254 20.5795 47.3072 21.3182 47.3072 22.1761C47.3072 23.1023 47.0771 23.929 46.6168 24.6562C46.1623 25.3778 45.489 25.9489 44.5969 26.3693C43.7049 26.7898 42.6055 27 41.2987 27H33.8413ZM37.5316 23.983H40.5401C41.5685 23.983 42.3185 23.7869 42.7901 23.3949C43.2617 22.9972 43.4975 22.4687 43.4975 21.8097C43.4975 21.3267 43.381 20.9006 43.1481 20.5312C42.9151 20.1619 42.5827 19.8722 42.1509 19.6619C41.7248 19.4517 41.2163 19.3466 40.6254 19.3466H37.5316V23.983ZM37.5316 16.8494H40.2674C40.7731 16.8494 41.2219 16.7614 41.614 16.5852C42.0117 16.4034 42.3242 16.1477 42.5515 15.8182C42.7844 15.4886 42.9009 15.0938 42.9009 14.6335C42.9009 14.0028 42.6765 13.4943 42.2276 13.108C41.7844 12.7216 41.1538 12.5284 40.3356 12.5284H37.5316V16.8494ZM53.3988 9.54545V27H49.7085V9.54545H53.3988ZM55.7702 12.5881V9.54545H70.1055V12.5881H64.7617V27H61.114V12.5881H55.7702ZM81.935 14.5653C81.8668 13.8778 81.5742 13.3437 81.0572 12.9631C80.5401 12.5824 79.8384 12.392 78.9521 12.392C78.3498 12.392 77.8413 12.4773 77.4265 12.6477C77.0117 12.8125 76.6935 13.0426 76.4719 13.3381C76.256 13.6335 76.1481 13.9688 76.1481 14.3438C76.1367 14.6562 76.2021 14.929 76.3441 15.1619C76.4918 15.3949 76.6935 15.5966 76.9492 15.767C77.2049 15.9318 77.5004 16.0767 77.8356 16.2017C78.1708 16.321 78.5288 16.4233 78.9094 16.5085L80.4776 16.8835C81.239 17.054 81.9379 17.2812 82.5742 17.5653C83.2106 17.8494 83.7617 18.1989 84.2276 18.6136C84.6935 19.0284 85.0543 19.517 85.31 20.0795C85.5714 20.642 85.7049 21.2869 85.7106 22.0142C85.7049 23.0824 85.4322 24.0085 84.8924 24.7926C84.3583 25.571 83.5856 26.1761 82.5742 26.608C81.5685 27.0341 80.3555 27.2472 78.935 27.2472C77.5259 27.2472 76.2987 27.0312 75.2532 26.5994C74.2134 26.1676 73.4009 25.5284 72.8157 24.6818C72.2362 23.8295 71.9322 22.7756 71.9038 21.5199H75.4748C75.5146 22.1051 75.6822 22.5937 75.9776 22.9858C76.2788 23.3722 76.6793 23.6648 77.1793 23.8636C77.685 24.0568 78.256 24.1534 78.8924 24.1534C79.5174 24.1534 80.06 24.0625 80.5202 23.8807C80.9862 23.6989 81.3469 23.446 81.6026 23.1222C81.8583 22.7983 81.9862 22.4261 81.9862 22.0057C81.9862 21.6136 81.8697 21.2841 81.6367 21.017C81.4094 20.75 81.0742 20.5227 80.631 20.3352C80.1935 20.1477 79.6566 19.9773 79.0202 19.8239L77.1197 19.3466C75.6481 18.9886 74.4862 18.429 73.6339 17.6676C72.7816 16.9062 72.3583 15.8807 72.364 14.5909C72.3583 13.5341 72.6396 12.6108 73.2077 11.821C73.7816 11.0312 74.5685 10.4148 75.5685 9.97159C76.5685 9.52841 77.7049 9.30682 78.9776 9.30682C80.2731 9.30682 81.4038 9.52841 82.3697 9.97159C83.3413 10.4148 84.0969 11.0312 84.6367 11.821C85.1765 12.6108 85.4549 13.5256 85.4719 14.5653H81.935Z" fill="#19918F"/>
<path d="M15.5378 19.4127C15.5378 17.531 14.0068 16 12.1251 16C10.2434 16 8.7124 17.531 8.7124 19.4127C8.7124 21.2944 10.2434 22.8254 12.1251 22.8254C14.0068 22.8254 15.5378 21.2944 15.5378 19.4127Z" fill="#19918F"/>
<path d="M2.88037 19.4712C2.88037 24.5902 7.04107 28.7509 12.1601 28.7509C17.2792 28.7509 21.4399 24.5902 21.4399 19.4712C21.4399 14.3521 17.2792 10.1914 12.1601 10.1914C10.6057 10.1914 9.15648 10.5771 7.87087 11.2433C8.59549 12.8912 10.2434 14.0365 12.1601 14.0365C15.1521 14.0365 17.5714 16.4675 17.5714 19.4595C17.5714 22.4514 15.1521 24.8707 12.1601 24.8707C9.07467 24.8707 6.59695 22.2995 6.74889 19.1907L6.71382 19.179C6.71382 18.431 6.71382 15.0066 6.71382 11.9562C4.38804 13.6509 2.88037 16.3857 2.88037 19.4712Z" fill="#0F5756"/>
<path d="M7.46182 7.81884V9.34989C7.46182 9.73557 7.52025 10.0979 7.60207 10.4602C8.96949 9.77063 10.5239 9.37327 12.1601 9.37327C17.7233 9.37327 22.258 13.8963 22.258 19.4711C22.258 25.0343 17.7233 29.569 12.1601 29.569C6.58527 29.569 2.06226 25.0343 2.06226 19.4711C2.06226 15.9065 3.92055 12.7626 6.71383 10.9627C6.71383 9.05771 6.71383 7.44485 6.71383 6.95398C6.71383 3.10884 3.53486 0 -0.39209 0V19.4595C-0.39209 26.3901 5.22953 32 12.1601 32C19.0907 32 24.7007 26.3901 24.7007 19.4595C24.7007 10.5654 15.6897 4.49963 7.46182 7.81884Z" fill="#19918F"/>
</g>
<defs>
<clipPath id="clip0_1_45303">
<rect width="143" height="32" fill="white"/>
</clipPath>
</defs>
</svg>
