<svg width="26" height="26" viewBox="0 0 26 26" fill="none" xmlns="http://www.w3.org/2000/svg">
<g clip-path="url(#clip0_613_507)">
<path d="M15.25 10.5H20.5V12H15.25V10.5ZM15.25 14.25H20.5V15.75H15.25V14.25ZM15.25 18H20.5V19.5H15.25V18ZM5.5 10.5H10.75V12H5.5V10.5ZM5.5 14.25H10.75V15.75H5.5V14.25ZM5.5 18H10.75V19.5H5.5V18Z" fill="#19918F"/>
<path d="M22 6.75H4C3.60218 6.75 3.22064 6.90804 2.93934 7.18934C2.65804 7.47064 2.5 7.85218 2.5 8.25V21.75C2.5 22.1478 2.65804 22.5294 2.93934 22.8107C3.22064 23.092 3.60218 23.25 4 23.25H22C22.3978 23.25 22.7794 23.092 23.0607 22.8107C23.342 22.5294 23.5 22.1478 23.5 21.75V8.25C23.5 7.85218 23.342 7.47064 23.0607 7.18934C22.7794 6.90804 22.3978 6.75 22 6.75ZM4 8.25H12.25V21.75H4V8.25ZM13.75 21.75V8.25H22V21.75H13.75Z" fill="#19918F"/>
</g>
<defs>
<clipPath id="clip0_613_507">
<rect width="26" height="26" fill="white"/>
</clipPath>
</defs>
</svg>
