<svg width="26" height="26" viewBox="0 0 26 26" fill="none" xmlns="http://www.w3.org/2000/svg">
<path d="M7.58464 23.8332V13.431C7.58464 12.274 7.58463 11.6955 7.85005 11.2102C8.11438 10.7248 8.6008 10.4117 9.57472 9.78557L11.8302 8.33607C12.399 7.97099 12.6828 7.7879 13.0013 7.7879C13.3198 7.7879 13.6036 7.97099 14.1735 8.33607L16.4279 9.78557C17.4018 10.4117 17.8882 10.7248 18.1526 11.2102C18.418 11.6955 18.418 12.274 18.418 13.431V23.8332M13.0013 14.0832H13.0111M22.7513 23.8332V17.5087C22.7513 15.0267 21.3863 14.8252 18.418 14.0832M3.2513 23.8332V17.5087C3.2513 15.0267 4.6163 14.8252 7.58464 14.0832M2.16797 23.8332H23.8346M13.0013 23.8332V19.4998M13.0013 7.58315V5.39699M13.0013 5.39699V3.21732C13.0013 2.70382 13.0013 2.44707 13.1595 2.28782C13.6578 1.78624 15.7096 2.9714 16.4896 3.4524C17.1483 3.85757 17.3346 4.6679 17.3346 5.39699H13.0013Z" stroke="#19918F" stroke-width="1.5" stroke-linecap="round" stroke-linejoin="round"/>
</svg>
