<svg width="37" height="37" viewBox="0 0 37 37" fill="none" xmlns="http://www.w3.org/2000/svg">
<path d="M32.4503 15.3995C32.8525 15.3995 33.2383 15.2397 33.5227 14.9553C33.8071 14.6709 33.9668 14.2851 33.9668 13.8829V9.33343C33.9666 9.01527 33.8663 8.70525 33.6801 8.44725C33.494 8.18924 33.2314 7.99632 32.9295 7.89578L19.281 3.34626C18.9699 3.24265 18.6336 3.24265 18.3226 3.34626L4.67401 7.89578C4.37216 7.99632 4.10957 8.18924 3.92341 8.44725C3.73726 8.70525 3.63696 9.01527 3.63672 9.33343V13.8829C3.63672 14.2851 3.79649 14.6709 4.08089 14.9553C4.36529 15.2397 4.75102 15.3995 5.15322 15.3995H6.66973V26.294C5.78513 26.6056 5.01868 27.1834 4.47561 27.948C3.93255 28.7127 3.6395 29.6267 3.63672 30.5645V33.5975C3.63672 33.9997 3.79649 34.3855 4.08089 34.6699C4.36529 34.9543 4.75102 35.114 5.15322 35.114H32.4503C32.8525 35.114 33.2383 34.9543 33.5227 34.6699C33.8071 34.3855 33.9668 33.9997 33.9668 33.5975V30.5645C33.9641 29.6267 33.671 28.7127 33.1279 27.948C32.5849 27.1834 31.8184 26.6056 30.9338 26.294V15.3995H32.4503ZM30.9338 32.081H6.66973V30.5645C6.66973 30.1623 6.82951 29.7766 7.11391 29.4922C7.39831 29.2078 7.78403 29.048 8.18624 29.048H29.4173C29.8195 29.048 30.2053 29.2078 30.4897 29.4922C30.7741 29.7766 30.9338 30.1623 30.9338 30.5645V32.081ZM9.70274 26.015V15.3995H12.7358V26.015H9.70274ZM15.7688 26.015V15.3995H21.8348V26.015H15.7688ZM24.8678 26.015V15.3995H27.9008V26.015H24.8678ZM6.66973 12.3664V10.4253L18.8018 6.38231L30.9338 10.4268V12.3664H6.66973Z" fill="#19918F"/>
</svg>
