<svg width="37" height="37" viewBox="0 0 37 37" fill="none" xmlns="http://www.w3.org/2000/svg">
<path d="M27.3038 30.5639H24.2708C23.8411 30.5639 23.4812 30.4183 23.191 30.1271C22.9009 29.836 22.7553 29.4761 22.7543 29.0474C22.7533 28.6187 22.8989 28.2588 23.191 27.9676C23.4832 27.6765 23.8431 27.5309 24.2708 27.5309H27.3038V24.4979C27.3038 24.0682 27.4494 23.7083 27.7406 23.4181C28.0317 23.128 28.3916 22.9824 28.8203 22.9814C29.249 22.9804 29.6094 23.1259 29.9016 23.4181C30.1938 23.7103 30.3388 24.0702 30.3368 24.4979V27.5309H33.3698C33.7995 27.5309 34.1599 27.6765 34.4511 27.9676C34.7423 28.2588 34.8873 28.6187 34.8863 29.0474C34.8853 29.4761 34.7397 29.8365 34.4496 30.1287C34.1594 30.4208 33.7995 30.5659 33.3698 30.5639H30.3368V33.5969C30.3368 34.0266 30.1912 34.387 29.9001 34.6782C29.6089 34.9693 29.249 35.1144 28.8203 35.1134C28.3916 35.1124 28.0317 34.9668 27.7406 34.6767C27.4494 34.3865 27.3038 34.0266 27.3038 33.5969V30.5639ZM4.55621 30.5639C4.12654 30.5639 3.76662 30.4183 3.47646 30.1271C3.1863 29.836 3.04072 29.4761 3.03971 29.0474V21.4649H2.77432C2.29409 21.4649 1.90233 21.2814 1.59903 20.9144C1.29573 20.5474 1.19462 20.1243 1.29573 19.6451L2.81223 12.0625C2.88806 11.7087 3.06498 11.418 3.34301 11.1905C3.62103 10.9631 3.93697 10.8493 4.29082 10.8493H24.5362C24.89 10.8493 25.206 10.9631 25.484 11.1905C25.762 11.418 25.9389 11.7087 26.0148 12.0625L27.5313 19.6451C27.6324 20.1253 27.5313 20.5489 27.228 20.9159C26.9247 21.2829 26.5329 21.4659 26.0527 21.4649H25.7873V24.4979C25.7873 24.9276 25.6417 25.288 25.3505 25.5791C25.0594 25.8703 24.6995 26.0154 24.2708 26.0144C23.8421 26.0134 23.4822 25.8678 23.191 25.5776C22.8999 25.2875 22.7543 24.9276 22.7543 24.4979V21.4649H16.6883V29.0474C16.6883 29.4771 16.5427 29.8375 16.2515 30.1287C15.9603 30.4198 15.6004 30.5649 15.1718 30.5639H4.55621ZM6.07272 27.5309H13.6552V21.4649H6.07272V27.5309ZM4.55621 9.33282C4.12654 9.33282 3.76662 9.18723 3.47646 8.89606C3.1863 8.60489 3.04072 8.24498 3.03971 7.81631C3.0387 7.38764 3.18428 7.02773 3.47646 6.73656C3.76864 6.44539 4.12856 6.2998 4.55621 6.2998H24.2708C24.7005 6.2998 25.0609 6.44539 25.3521 6.73656C25.6432 7.02773 25.7883 7.38764 25.7873 7.81631C25.7863 8.24498 25.6407 8.6054 25.3505 8.89758C25.0604 9.18976 24.7005 9.33484 24.2708 9.33282H4.55621ZM4.63204 18.4319H24.195L23.2851 13.8823H5.54194L4.63204 18.4319Z" fill="#19918F"/>
</svg>
