<svg width="42" height="42" viewBox="0 0 42 42" fill="none" xmlns="http://www.w3.org/2000/svg">
<path d="M0 21C0 9.40202 9.40202 0 21 0C32.598 0 42 9.40202 42 21C42 32.598 32.598 42 21 42C9.40202 42 0 32.598 0 21Z" fill="#B3E3E3"/>
<path fill-rule="evenodd" clip-rule="evenodd" d="M21 20C23.2091 20 25 18.2091 25 16C25 13.7909 23.2091 12 21 12C18.7909 12 17 13.7909 17 16C17 18.2091 18.7909 20 21 20ZM21 30C24.866 30 28 28.2091 28 26C28 23.7909 24.866 22 21 22C17.134 22 14 23.7909 14 26C14 28.2091 17.134 30 21 30Z" fill="#19918F"/>
</svg>
