<svg width="38" height="37" viewBox="0 0 38 37" fill="none" xmlns="http://www.w3.org/2000/svg">
<path d="M6.87286 32.0802C6.03878 32.0802 5.32501 31.7835 4.73155 31.19C4.13809 30.5966 3.84085 29.8823 3.83984 29.0472V12.3656C3.83984 11.5316 4.13708 10.8178 4.73155 10.2243C5.32602 9.63087 6.03979 9.33364 6.87286 9.33263H12.9389V6.29961C12.9389 5.46554 13.2361 4.75177 13.8306 4.15831C14.4251 3.56485 15.1388 3.26761 15.9719 3.2666H22.0379C22.872 3.2666 23.5863 3.56384 24.1807 4.15831C24.7752 4.75278 25.0719 5.46655 25.0709 6.29961V9.33263H31.137C31.971 9.33263 32.6853 9.62986 33.2798 10.2243C33.8742 10.8188 34.171 11.5326 34.17 12.3656V29.0472C34.17 29.8813 33.8732 30.5956 33.2798 31.19C32.6863 31.7845 31.972 32.0812 31.137 32.0802H6.87286ZM6.87286 29.0472H31.137V12.3656H6.87286V29.0472ZM15.9719 9.33263H22.0379V6.29961H15.9719V9.33263Z" fill="#19918F"/>
</svg>
