<svg width="40" height="40" viewBox="0 0 40 40" fill="none" xmlns="http://www.w3.org/2000/svg">
<path d="M16.6673 25.0002L25.3173 20.0002L16.6673 15.0002V25.0002ZM35.934 11.9502C36.1507 12.7335 36.3007 13.7835 36.4007 15.1168C36.5173 16.4502 36.5673 17.6002 36.5673 18.6002L36.6673 20.0002C36.6673 23.6502 36.4007 26.3335 35.934 28.0502C35.5173 29.5502 34.5506 30.5168 33.0506 30.9335C32.2673 31.1502 30.834 31.3002 28.634 31.4002C26.4673 31.5168 24.484 31.5668 22.6507 31.5668L20.0007 31.6668C13.0173 31.6668 8.66732 31.4002 6.95065 30.9335C5.45065 30.5168 4.48398 29.5502 4.06732 28.0502C3.85065 27.2668 3.70065 26.2168 3.60065 24.8835C3.48398 23.5502 3.43398 22.4002 3.43398 21.4002L3.33398 20.0002C3.33398 16.3502 3.60065 13.6668 4.06732 11.9502C4.48398 10.4502 5.45065 9.4835 6.95065 9.06683C7.73398 8.85016 9.16732 8.70016 11.3673 8.60016C13.534 8.4835 15.5173 8.4335 17.3507 8.4335L20.0007 8.3335C26.984 8.3335 31.334 8.60016 33.0506 9.06683C34.5506 9.4835 35.5173 10.4502 35.934 11.9502Z" fill="white"/>
</svg>
